<svg width="26" height="24" viewBox="0 0 26 24" xmlns="http://www.w3.org/2000/svg">
    <path
        d="M21.9064 14.9188L21.9063 11.0486C21.9086 10.1865 21.7399 9.33246 21.41 8.53598C21.0801 7.73951 20.5955 7.01637 19.9842 6.40843L17.1384 3.56251H19.5625C19.8111 3.56251 20.0496 3.46374 20.2254 3.28793C20.4012 3.11211 20.5 2.87365 20.5 2.62501C20.5 2.37637 20.4012 2.13792 20.2254 1.9621C20.0496 1.78629 19.8111 1.68751 19.5625 1.68751H14.875C14.8576 1.68751 14.8405 1.68917 14.8233 1.69012C14.8102 1.69083 14.7971 1.69085 14.7841 1.69211C14.764 1.69404 14.7443 1.6975 14.7245 1.70069C14.7142 1.70237 14.7037 1.70343 14.6934 1.70544C14.6738 1.70931 14.6547 1.71451 14.6354 1.71959C14.6251 1.72231 14.6146 1.72451 14.6043 1.72759C14.5864 1.73298 14.569 1.73957 14.5516 1.746C14.5402 1.7502 14.5287 1.75389 14.5173 1.75856C14.5016 1.76505 14.4865 1.77262 14.4712 1.77994C14.4587 1.78591 14.446 1.79143 14.4338 1.79798C14.4196 1.80551 14.4063 1.81406 14.3926 1.82227C14.3799 1.82988 14.3671 1.83702 14.3547 1.84529C14.3409 1.85455 14.3279 1.86483 14.3146 1.87477C14.3033 1.88326 14.2916 1.89114 14.2806 1.90018C14.263 1.91459 14.2465 1.93016 14.2301 1.94581C14.2242 1.95141 14.2178 1.95628 14.2121 1.96206C14.2051 1.96903 14.1992 1.97661 14.1925 1.98375C14.1782 1.99894 14.1638 2.01402 14.1505 2.03016C14.1394 2.04363 14.1297 2.05781 14.1194 2.07176C14.1116 2.08243 14.1033 2.09273 14.0959 2.10375C14.0857 2.11903 14.0767 2.13485 14.0675 2.15055C14.0612 2.16117 14.0545 2.1715 14.0486 2.18237C14.0403 2.19793 14.0332 2.21393 14.0258 2.22983C14.0202 2.24175 14.0142 2.25341 14.0092 2.26559C14.0029 2.28084 13.9977 2.29643 13.9922 2.31194C13.9875 2.32536 13.9823 2.33858 13.9781 2.35228C13.9735 2.36776 13.97 2.38347 13.9661 2.39915C13.9626 2.41319 13.9586 2.42704 13.9558 2.44135C13.9522 2.45943 13.9499 2.47768 13.9474 2.49592C13.9458 2.50802 13.9434 2.5199 13.9422 2.53214C13.9391 2.5632 13.9376 2.59434 13.9375 2.62558V7.31251C13.9375 7.56115 14.0363 7.79961 14.2121 7.97543C14.3879 8.15124 14.6264 8.25001 14.875 8.25001C15.1237 8.25001 15.3621 8.15124 15.5379 7.97543C15.7137 7.79961 15.8125 7.56115 15.8125 7.31251V4.88847L18.6583 7.73434C19.095 8.16853 19.4411 8.68502 19.6768 9.25391C19.9125 9.8228 20.033 10.4328 20.0313 11.0486L20.0314 14.9188C19.0202 15.1493 18.1293 15.7443 17.5289 16.5901C16.9285 17.4358 16.6607 18.4732 16.7767 19.5038C16.8927 20.5345 17.3843 21.4864 18.1577 22.1776C18.931 22.8688 19.9319 23.2508 20.9691 23.2508C22.0063 23.2508 23.0071 22.8687 23.7804 22.1775C24.5538 21.4863 25.0453 20.5344 25.1613 19.5037C25.2773 18.473 25.0095 17.4357 24.409 16.59C23.8086 15.7442 22.9177 15.1493 21.9064 14.9188ZM11.1252 15.75C10.8766 15.75 10.6382 15.8488 10.4623 16.0246C10.2865 16.2004 10.1878 16.4389 10.1877 16.6875V19.1116L7.34183 16.2657C6.90521 15.8315 6.55906 15.315 6.32339 14.7461C6.08772 14.1772 5.96723 13.5672 5.96888 12.9515L5.96876 9.08121C6.98002 8.85072 7.87093 8.25576 8.47131 7.41C9.07169 6.56424 9.33947 5.52694 9.22349 4.49625C9.10751 3.46556 8.6159 2.51371 7.84257 1.82252C7.06924 1.13134 6.06839 0.74926 5.0312 0.749268C3.994 0.749275 2.99316 1.13137 2.21984 1.82257C1.44652 2.51376 0.954925 3.46562 0.838961 4.49631C0.722997 5.527 0.990788 6.5643 1.59118 7.41005C2.19158 8.25581 3.0825 8.85075 4.09376 9.08123L4.09388 12.9516C4.09159 13.8137 4.26028 14.6676 4.5902 15.4641C4.92011 16.2605 5.4047 16.9837 6.01591 17.5916L8.86183 20.4375H6.43774C6.1891 20.4375 5.95065 20.5363 5.77483 20.7121C5.59901 20.8879 5.50024 21.1264 5.50024 21.375C5.50024 21.6237 5.59901 21.8621 5.77483 22.0379C5.95065 22.2137 6.1891 22.3125 6.43774 22.3125H11.1252C11.1561 22.3125 11.187 22.3109 11.2178 22.3078C11.2316 22.3065 11.245 22.3039 11.2587 22.3019C11.2753 22.2996 11.292 22.2976 11.3085 22.2943C11.324 22.2913 11.3391 22.287 11.3544 22.2831C11.3688 22.2795 11.3832 22.2764 11.3975 22.272C11.4123 22.2675 11.4266 22.262 11.4411 22.2568C11.4555 22.2516 11.47 22.2469 11.4842 22.241C11.4975 22.2355 11.5102 22.229 11.5231 22.223C11.538 22.216 11.5529 22.2094 11.5674 22.2016C11.5794 22.1952 11.5908 22.1878 11.6024 22.1809C11.6171 22.1722 11.6319 22.1639 11.6462 22.1544C11.6583 22.1462 11.6697 22.1371 11.6814 22.1284C11.6943 22.1189 11.7074 22.1099 11.7199 22.0997C11.7367 22.0858 11.7525 22.0708 11.7684 22.0559C11.7749 22.0497 11.7818 22.0443 11.7882 22.038C11.7948 22.0314 11.8004 22.0242 11.8068 22.0174C11.8215 22.0018 11.8362 21.9863 11.8498 21.9698C11.8605 21.9568 11.8699 21.9431 11.8798 21.9297C11.888 21.9185 11.8967 21.9077 11.9045 21.8961C11.9144 21.8813 11.9231 21.8659 11.9321 21.8506C11.9386 21.8396 11.9456 21.8288 11.9517 21.8175C11.9598 21.8023 11.9667 21.7868 11.9739 21.7713C11.9797 21.759 11.9859 21.7469 11.9912 21.7342C11.9973 21.7194 12.0023 21.7043 12.0076 21.6892C12.0126 21.6753 12.0179 21.6617 12.0222 21.6476C12.0268 21.6325 12.0301 21.6171 12.034 21.6018C12.0376 21.5874 12.0416 21.5732 12.0445 21.5585C12.048 21.5408 12.0502 21.5229 12.0527 21.505C12.0544 21.4926 12.0568 21.4804 12.0581 21.4678C12.0611 21.4368 12.0627 21.4056 12.0627 21.3744V16.6875C12.0627 16.4389 11.964 16.2004 11.7881 16.0246C11.6123 15.8488 11.3739 15.75 11.1252 15.75Z" stroke="none" />
</svg>