<svg width="24" height="18" viewBox="0 0 24 18" xmlns="http://www.w3.org/2000/svg">
    <path
        d="M23.175 14.8575L23.6925 14.3363C23.8912 14.1413 24 13.875 24 13.59C24 13.305 23.8912 13.0425 23.6962 12.8438C23.4975 12.645 23.235 12.5363 22.95 12.5325C22.95 12.5325 22.95 12.5325 22.9462 12.5325C22.665 12.5325 22.4025 12.645 22.2 12.8438L21.6787 13.3613L20.8537 12.5363C21.7162 11.385 22.17 10.0088 22.17 8.54254C22.17 6.75004 21.4725 5.06629 20.205 3.79879C18.9375 2.53504 17.2537 1.83379 15.4612 1.83379C14.6812 1.83379 13.9237 1.96129 13.2075 2.22379C12.0075 1.30504 10.5712 0.821289 9.04496 0.821289C7.20371 0.821289 5.47496 1.53754 4.17371 2.83879C2.87246 4.14004 2.15621 5.86879 2.15621 7.71004C2.15621 9.19879 2.61371 10.5975 3.48746 11.7788L2.51246 12.7538L2.55371 12.465C2.62496 11.8913 2.22371 11.3588 1.64621 11.28C1.06496 11.205 0.532458 11.61 0.461208 12.1838L0.0112076 15.555C-4.23706e-05 15.6113 -4.23705e-05 15.6563 0.00370763 15.6713V15.7313C0.00370763 15.7913 0.00745763 15.8438 0.0187076 15.9C0.0187076 15.9075 0.0187076 15.915 0.0224576 15.9225C0.0599576 16.125 0.157458 16.3125 0.307458 16.4625C0.506208 16.6613 0.772458 16.7663 1.05371 16.7663C1.09121 16.7663 1.12871 16.7663 1.19621 16.7588L4.57121 16.3013C4.85246 16.2638 5.09996 16.1213 5.26871 15.8925C5.43746 15.6638 5.51246 15.39 5.47121 15.1125C5.39996 14.535 4.85621 14.13 4.28621 14.2088L4.00121 14.25L4.97621 13.275C6.15746 14.145 7.55996 14.6025 9.04496 14.6025C9.95996 14.6025 10.845 14.4263 11.6775 14.0813C12.795 14.85 14.0962 15.2475 15.4612 15.2475C16.845 15.2475 18.21 14.8125 19.3425 14.0063L20.1862 14.8538L19.6687 15.375C19.47 15.5738 19.3612 15.84 19.3612 16.125C19.3612 16.4063 19.4737 16.6688 19.6687 16.8675C20.07 17.2688 20.775 17.2613 21.1612 16.8675L21.6825 16.3463L22.2037 16.8675C22.4025 17.0663 22.6687 17.175 22.9537 17.175C23.2312 17.175 23.5012 17.0625 23.6962 16.8675C23.8912 16.6725 24 16.4063 24 16.125C24.0037 15.84 23.8912 15.5775 23.6925 15.375L23.175 14.8575ZM9.04496 2.93629C9.77621 2.93629 10.4887 3.10129 11.1375 3.42004C10.995 3.54004 10.8562 3.66754 10.7175 3.80254C9.45371 5.06629 8.75246 6.75004 8.75246 8.54629C8.75246 9.93004 9.17996 11.2838 9.96746 12.4013C9.66746 12.465 9.35621 12.495 9.04496 12.495C7.78496 12.495 6.59621 12.0075 5.68871 11.1188C5.68496 11.1113 5.68121 11.1038 5.67371 11.1C5.66996 11.0963 5.66621 11.0888 5.66246 11.085C5.65871 11.085 5.65871 11.0813 5.65496 11.0813C4.75871 10.1813 4.26746 8.98504 4.26746 7.71379C4.26746 6.43879 4.76246 5.23879 5.66246 4.33129C6.56996 3.43129 7.77371 2.93629 9.04496 2.93629ZM12.2137 5.29504C12.4012 5.10379 12.6075 4.93129 12.8212 4.78129C13.4737 5.61379 13.8262 6.64504 13.8262 7.71379C13.8262 8.98879 13.3275 10.1888 12.4275 11.0925C12.2775 11.2425 12.12 11.3813 11.9512 11.5088C11.25 10.6838 10.8712 9.64504 10.8712 8.54629C10.8675 7.31629 11.3437 6.16129 12.2137 5.29504ZM12.06 12.6338C12.03 12.6075 11.9962 12.585 11.9662 12.555C11.9962 12.585 12.0262 12.6075 12.06 12.6338ZM12.8025 13.1513C12.8212 13.17 12.8437 13.1813 12.8625 13.1925C12.7425 13.125 12.6225 13.05 12.5062 12.975C12.6037 13.035 12.7012 13.095 12.8025 13.1513ZM13.7062 12.7913C13.7775 12.7275 13.8525 12.6563 13.92 12.5888C15.2175 11.2875 15.9337 9.55504 15.9337 7.71754C15.9337 6.37879 15.5587 5.10379 14.8462 3.99754C15.0487 3.96754 15.2587 3.95254 15.465 3.95254C16.6912 3.95254 17.8462 4.42879 18.7162 5.29504C19.5825 6.16879 20.0587 7.32004 20.0587 8.54629C20.0587 9.77629 19.5825 10.9313 18.7162 11.7975C17.3962 13.11 15.4012 13.4888 13.7062 12.7913Z"
        stroke="none" />
</svg>
    