<svg width="27" height="27" viewBox="0 0 27 27" xmlns="http://www.w3.org/2000/svg">
    <path
        d="M13.0915 12.9355L23.5479 6.2182C23.1275 5.90289 22.617 5.73081 22.0915 5.72729H4.0915C3.56601 5.73081 3.05552 5.90289 2.63513 6.2182L13.0915 12.9355Z" />
    <path
        d="M13.5327 14.5964L13.3936 14.6618H13.3282C13.2528 14.6955 13.1728 14.7175 13.0909 14.7273C13.023 14.7358 12.9543 14.7358 12.8864 14.7273H12.8209L12.6818 14.6618L1.71817 7.57635C1.66579 7.77398 1.6383 7.97737 1.63635 8.18181V19.6364C1.63635 20.2873 1.89496 20.9117 2.35527 21.372C2.81559 21.8323 3.43991 22.0909 4.0909 22.0909H22.0909C22.7419 22.0909 23.3662 21.8323 23.8265 21.372C24.2868 20.9117 24.5454 20.2873 24.5454 19.6364V8.18181C24.5435 7.97737 24.516 7.77398 24.4636 7.57635L13.5327 14.5964Z" />
</svg>