<svg width="20" height="20" viewBox="0 0 20 20" xmlns="http://www.w3.org/2000/svg">
    <path
        d="M10.891 5.98195C11.6722 5.98195 12.4214 6.29227 12.9737 6.84465C13.5261 7.39703 13.8365 8.14622 13.8365 8.9274C13.8365 9.18779 13.9399 9.43752 14.124 9.62165C14.3081 9.80578 14.5579 9.90922 14.8183 9.90922C15.0787 9.90922 15.3284 9.80578 15.5125 9.62165C15.6966 9.43752 15.8001 9.18779 15.8001 8.9274C15.8001 7.62543 15.2829 6.37678 14.3622 5.45615C13.4416 4.53552 12.193 4.01831 10.891 4.01831C10.6306 4.01831 10.3809 4.12175 10.1967 4.30588C10.0126 4.49001 9.90918 4.73973 9.90918 5.00013C9.90918 5.26052 10.0126 5.51025 10.1967 5.69438C10.3809 5.8785 10.6306 5.98195 10.891 5.98195Z" />
    <path
        d="M10.8909 2.05452C12.7137 2.05452 14.4618 2.77861 15.7507 4.06749C17.0396 5.35638 17.7637 7.10448 17.7637 8.92724C17.7637 9.18764 17.8671 9.43737 18.0512 9.62149C18.2354 9.80562 18.4851 9.90906 18.7455 9.90906C19.0059 9.90906 19.2556 9.80562 19.4397 9.62149C19.6239 9.43737 19.7273 9.18764 19.7273 8.92724C19.7273 6.58369 18.7963 4.33613 17.1392 2.67899C15.482 1.02185 13.2345 0.0908813 10.8909 0.0908813C10.6305 0.0908813 10.3808 0.194323 10.1967 0.378449C10.0126 0.562576 9.90912 0.812305 9.90912 1.0727C9.90912 1.33309 10.0126 1.58282 10.1967 1.76695C10.3808 1.95108 10.6305 2.05452 10.8909 2.05452ZM19.4818 13.748C19.4278 13.5904 19.3346 13.4491 19.211 13.3374C19.0873 13.2258 18.9372 13.1474 18.7749 13.1098L12.884 11.7647C12.7241 11.7284 12.5577 11.7328 12.3999 11.7774C12.2421 11.822 12.098 11.9054 11.9808 12.02C11.8433 12.1476 11.8335 12.1574 11.1953 13.3749C9.07772 12.3991 7.38093 10.6954 6.41385 8.57379C7.66076 7.94543 7.67058 7.94543 7.79821 7.79815C7.9128 7.68088 7.99619 7.53678 8.04078 7.379C8.08537 7.22122 8.08974 7.05478 8.05348 6.89488L6.70839 1.0727C6.67074 0.910401 6.5924 0.760354 6.48075 0.636685C6.36911 0.513016 6.22783 0.419793 6.07021 0.36579C5.84093 0.283896 5.60415 0.224704 5.3633 0.189063C5.11515 0.131524 4.86192 0.0986371 4.6073 0.0908813C3.40949 0.0908813 2.26074 0.566711 1.41375 1.41369C0.566772 2.26068 0.0909424 3.40943 0.0909424 4.60724C0.0961381 8.61572 1.6908 12.4585 4.52522 15.293C7.35965 18.1274 11.2025 19.722 15.2109 19.7272C15.804 19.7272 16.3913 19.6104 16.9393 19.3835C17.4872 19.1565 17.9851 18.8238 18.4045 18.4044C18.8239 17.985 19.1565 17.4872 19.3835 16.9392C19.6105 16.3913 19.7273 15.804 19.7273 15.2109C19.7276 14.961 19.7079 14.7115 19.6684 14.4647C19.6271 14.2208 19.5647 13.981 19.4818 13.748Z" />
</svg>