<svg width="461" height="268" viewBox="0 0 461 268" fill="none" xmlns="http://www.w3.org/2000/svg">
<g opacity="0.06">
<path d="M-300 0C-178.303 0.554637 -56.6067 -0.323541 65.0899 0.261909L65.1207 1.40201C69.527 1.50985 73.9179 1.74094 78.3242 1.94122L74.1027 3.08132C79.4334 2.55749 84.4868 4.49873 89.4323 6.19346C89.6942 6.17805 90.2026 6.13182 90.4645 6.11642C92.868 7.13325 95.3022 8.04224 97.7364 9.02826C99.5236 9.75237 101.311 10.4611 103.129 11.1698C103.853 11.5087 105.332 12.2174 106.071 12.5718C110.277 14.7287 114.391 17.0859 118.412 19.5818C126.223 24.2654 132.894 30.5359 139.796 36.3904C144.588 41.9521 149.503 47.4215 153.878 53.3376C155.696 56.5422 157.992 59.454 160.38 62.258C161.165 63.9836 162.121 65.6321 163.399 67.0649C165.171 70.254 167.066 73.3816 169.208 76.3397C170.394 78.3271 171.519 80.33 172.674 82.3482C174.554 85.6606 176.664 88.819 178.929 91.8849C180.763 95.3976 182.889 98.7562 185.061 102.069C186.078 103.748 187.125 105.396 188.204 107.06C189.868 110.234 191.917 113.161 193.689 116.274C195.923 119.879 198.388 123.345 200.652 126.95C201.5 128.553 202.363 130.17 203.241 131.788C204.242 133.205 205.228 134.638 206.245 136.071C207.185 137.658 208.14 139.26 209.049 140.878C210.497 143.697 212.238 146.332 214.318 148.735C214.534 149.444 214.95 150.861 215.165 151.57C216.937 153.742 218.647 155.992 220.45 158.149C220.619 159.027 220.943 160.799 221.097 161.677L222.73 161.615L222.283 163.51L223.331 163.387C224.872 166.977 227.075 170.227 229.216 173.494C230.31 175.08 231.45 176.667 232.652 178.193C232.914 178.886 233.422 180.257 233.669 180.935C235.317 182.368 236.365 184.247 236.935 186.358L237.921 186.327L237.782 187.252C238.63 188.731 239.492 190.21 240.355 191.689C241.403 193.199 242.42 194.708 243.452 196.249C246.287 201.025 249.106 205.817 252.311 210.362C253.851 212.934 255.392 215.523 257.087 218.003C258.412 219.606 259.213 221.516 259.906 223.488L260.492 223.319C261.539 225.845 262.849 228.279 264.559 230.436C265.622 231.915 266.67 233.441 267.625 235.028C268.503 236.845 269.612 238.556 271.261 239.819C271.384 240.759 271.631 242.654 271.754 243.609L273.402 243.07L272.956 245.011C273.464 245.057 274.496 245.134 275.005 245.18L274.342 247.984L276.592 248.139C276.499 248.816 276.314 250.203 276.222 250.896L278.086 251.143C278.071 251.667 278.04 252.73 278.024 253.254C279.919 254.317 280.921 256.15 281.737 258.091C284.541 260.171 284.156 263.792 284.68 266.888C266.577 266.519 248.459 267.227 230.356 266.442L235.733 264.67C233.915 264.762 230.295 264.947 228.477 265.04L228.569 263.129C227.799 263.314 226.243 263.699 225.472 263.884L225.38 261.635C224.641 261.804 223.162 262.159 222.422 262.343L222.33 261.08C220.404 260.402 218.57 259.616 216.968 258.353C210.574 254.471 206.8 247.969 201.962 242.531C202.147 242.222 202.532 241.606 202.717 241.298C200.899 239.434 199.482 237.308 198.357 234.981C197.325 233.471 196.231 231.992 195.152 230.544C194.29 228.957 193.411 227.386 192.564 225.83C190.854 223.288 189.252 220.699 187.649 218.111C185.369 214.984 183.289 211.702 181.733 208.143L180.547 208.312L180.994 206.464C180.686 206.402 180.085 206.263 179.776 206.202C178.374 202.627 176.279 199.407 174.03 196.326C172.905 194.77 171.75 193.229 170.548 191.735C170.348 191.011 169.947 189.547 169.747 188.823C167.744 187.652 166.912 185.572 166.342 183.462L165.294 183.523L165.587 181.798C165.079 181.752 164.062 181.659 163.553 181.613L164.031 179.595C161.997 176.883 160.195 174.017 157.884 171.537C157.822 171.059 157.699 170.12 157.637 169.642H155.896L156.281 167.839L154.725 168.04C154.587 167.162 154.294 165.39 154.155 164.512C151.244 161.8 149.426 158.21 147.515 154.79C145.975 152.71 144.511 150.599 143.001 148.52C142.246 147.056 141.507 145.608 140.752 144.159L140.829 143.035L138.826 143.158C138.934 142.634 139.165 141.571 139.288 141.047C137.054 138.32 135.097 135.409 133.31 132.404C131.523 129.585 129.644 126.842 128.026 123.946C125.33 119.709 123.08 115.164 119.706 111.405C119.537 110.727 119.167 109.356 118.998 108.663C115.901 104.719 113.405 100.389 110.74 96.1679C109.754 94.5965 108.737 93.0558 107.705 91.5151C106.719 89.9899 105.733 88.4955 104.746 86.9856C100.386 81.0233 95.0095 75.9545 89.0626 71.5944C86.0429 69.8381 83.0386 68.0971 80.0035 66.387C76.8759 65.1236 73.7484 63.9065 70.7133 62.4429C66.9695 61.5493 63.1024 61.3644 59.2816 61.2412L59.3125 59.9933C-42.9257 59.7776 -145.148 59.8238 -247.371 59.8238L-247.217 58.5296C-249.882 58.4988 -252.563 58.4218 -255.244 58.3602L-255.136 56.3419C-255.845 56.6038 -257.262 57.1122 -257.986 57.3587C-258.017 56.8503 -258.094 55.8335 -258.125 55.3405C-259.311 55.3097 -261.684 55.2634 -262.87 55.2326C-262.87 54.6934 -262.901 53.6303 -262.901 53.0911C-264.858 52.4286 -266.768 51.6121 -268.324 50.2255C-270.466 47.9145 -272.777 45.7884 -275.226 43.8009C-275.134 43.2617 -274.964 42.1524 -274.887 41.6132L-276.89 41.7364L-276.613 39.8414C-277.183 39.8414 -278.308 39.8414 -278.878 39.8414L-277.676 37.2223L-280.002 36.868C-279.925 36.1593 -279.756 34.7573 -279.679 34.0486L-281.697 33.9561C-281.651 33.3861 -281.543 32.246 -281.497 31.6759C-283.777 30.6437 -284.532 28.3789 -285.102 26.145L-286.365 26.4377L-285.795 24.4195L-287.49 24.9587C-287.551 23.6953 -287.675 21.184 -287.736 19.9207C-288.399 19.9669 -289.755 20.044 -290.417 20.0748C-290.51 18.8885 -290.679 16.5159 -290.771 15.3296L-292.559 15.6531L-291.973 13.5886L-294.207 13.7735C-293.976 13.034 -293.498 11.5703 -293.267 10.8462L-295.363 11.0311C-295.27 10.5227 -295.054 9.47505 -294.962 8.95122L-296.78 9.30557C-296.826 8.15008 -296.934 5.83909 -296.996 4.68359C-297.704 4.68359 -299.122 4.68359 -299.831 4.68359C-299.892 3.12753 -299.954 1.55607 -300 0Z" fill="url(#paint0_linear_280_1849)"/>
<path d="M285.466 6.43994C290.889 6.08559 296.204 4.60657 301.658 4.74523C331.038 4.82226 360.403 4.7144 389.768 4.85306C405.822 6.79429 422.107 5.22283 438.268 5.80828C438.176 16.7316 438.315 27.6702 438.022 38.6089L436.142 38.4394C436.281 39.1481 436.558 40.5655 436.697 41.2742L434.709 41.7364C434.925 42.4605 435.372 43.8934 435.588 44.6175L433.985 44.6483C432.999 47.2366 431.72 49.7171 429.61 51.5504C426.436 55.5099 422.4 58.6221 417.731 60.5941L418.255 61.6263C416.637 61.688 413.387 61.7804 411.754 61.8266L412.046 63.8295C411.23 63.5522 409.627 63.0129 408.811 62.7356L408.934 64.5844C375.24 64.5844 341.546 64.6614 307.836 64.6306C303.106 64.7077 298.176 64.1068 293.724 66.048C293.292 66.0172 292.43 65.9556 291.998 65.9248C291.906 66.2637 291.705 66.957 291.598 67.296C289.857 68.1741 288.147 69.0831 286.452 70.0075C284.896 72.2569 283.17 74.383 281.275 76.3396C280.998 78.6352 280.782 80.9462 280.566 83.2572L278.024 83.1802C278.086 87.1243 277.115 91.7616 280.566 94.6889C280.967 97.647 281.229 100.929 284.233 102.485C284.079 103.008 283.771 104.041 283.617 104.564L285.604 104.642L285.435 106.398L286.421 106.49C287.268 108.262 288.193 110.018 289.148 111.744C290.226 113.346 291.305 114.995 292.445 116.582C293.585 118.507 294.71 120.449 295.788 122.421C296.636 124.146 297.699 125.764 299.039 127.166C299.27 127.875 299.732 129.261 299.963 129.97C301.365 131.357 302.521 132.99 303.507 134.731C306.126 138.844 308.714 142.973 311.41 147.04C313.675 149.583 315.509 152.464 316.803 155.607L318.42 155.745L317.743 158.287C318.082 158.364 318.759 158.518 319.098 158.611C322.888 165.297 326.91 171.907 331.47 178.116C331.624 179.025 331.932 180.843 332.086 181.736C332.579 181.782 333.55 181.859 334.043 181.89C334.69 184.078 335.568 186.235 337.725 187.375C337.71 187.899 337.663 188.977 337.648 189.516L339.589 189.347L339.343 191.304L341.33 191.026C341.253 191.766 341.13 193.245 341.053 193.984C341.823 193.954 343.333 193.877 344.088 193.846L344.057 195.248C346.106 196.557 348.155 197.882 350.25 199.176L350.435 200.671C351.113 200.501 352.469 200.193 353.147 200.024L353.47 202.104C354.195 201.965 355.627 201.688 356.336 201.564L356.213 203.197C359.448 203.922 362.668 204.723 365.965 205.277L365.241 206.387C387.534 206.818 409.828 206.51 432.136 206.587L431.736 207.819C433.985 207.897 436.25 207.989 438.53 208.097L437.945 211.24C438.623 210.562 439.994 209.191 440.672 208.513L441.257 211.178C441.981 211.07 443.445 210.855 444.169 210.747L444.246 212.78C444.785 212.78 445.848 212.796 446.388 212.796C447.651 214.013 448.93 215.215 450.208 216.416C450.393 216.74 450.748 217.402 450.917 217.741C453.706 220.268 456.263 223.057 458.697 225.953C458.158 226.415 457.064 227.37 456.525 227.848L459.252 227.786C459.714 230.205 460.223 232.639 460.854 235.043C461.132 245.643 460.916 256.258 460.978 266.857C427.268 266.703 393.543 266.888 359.833 266.719L368.107 264.762C364.609 264.885 361.112 264.993 357.615 265.086L358.339 263.622C355.566 263.56 352.808 263.453 350.066 263.391L350.559 261.881C348.818 261.897 347.077 261.912 345.351 261.943L345.967 260.51C344.304 260.448 340.96 260.341 339.296 260.279L339.512 258.245C338.773 258.507 337.309 259 336.569 259.247L336.585 257.305C335.368 257.29 332.933 257.275 331.716 257.275L331.994 255.21L329.945 256.35L330.391 254.301C329.19 254.286 326.786 254.255 325.585 254.239L325.939 252.868C323.767 252.067 321.594 251.251 319.422 250.496C319.437 250.08 319.453 249.263 319.453 248.847C317.465 248.108 315.524 247.214 313.906 245.827C312.35 244.826 310.794 243.871 309.223 242.946C304.647 239.572 300.811 235.382 296.497 231.73C296.451 231.207 296.343 230.144 296.297 229.62C295.711 229.574 294.556 229.497 293.986 229.45C292.43 226.939 290.827 224.459 289.348 221.916C288.871 221.901 287.946 221.87 287.484 221.855C287.299 220.93 286.914 219.097 286.729 218.173C284.665 216.986 283.987 214.737 283.263 212.657C282.847 212.642 282.015 212.626 281.599 212.611C281.075 210.331 280.489 208.004 278.24 206.849C278.071 205.924 277.732 204.091 277.578 203.167L275.96 203.506L276.638 201.534L274.851 202.042C274.743 200.871 274.527 198.529 274.419 197.358C273.895 197.343 272.863 197.297 272.339 197.266C271.646 195.279 270.907 193.306 269.551 191.689C268.935 190.934 267.702 189.439 267.086 188.684C267.163 188.145 267.317 187.051 267.394 186.512L265.992 186.373C264.39 182.83 262.079 179.702 259.875 176.529C257.965 173.201 255.947 169.95 254.098 166.607L253.482 166.838C252.788 165.097 252.064 163.371 251.386 161.631L250.601 161.754C248.844 158.333 246.811 155.083 244.823 151.816C243.252 149.598 241.696 147.395 240.001 145.284C239.724 144.622 239.184 143.281 238.922 142.619C237.135 140.077 235.487 137.442 234.146 134.654C233.022 132.99 231.866 131.372 230.634 129.816C230.449 128.953 230.094 127.228 229.925 126.365L228.354 126.442L228.924 124.67C228.508 124.655 227.676 124.655 227.26 124.655C227.136 123.391 226.875 120.849 226.736 119.571C223.454 118.23 223.993 114.533 223.531 111.682C223.054 109.803 222.591 107.939 222.16 106.074L221.051 106.398C221.189 98.3094 218.447 90.3134 219.88 82.2249C220.589 77.9419 220.881 73.5973 221.066 69.268L222.145 69.6378C222.591 67.7119 223.069 65.7861 223.578 63.8757C223.778 62.2118 223.963 60.5633 224.178 58.8994C226.813 54.6317 228.816 50.0252 230.942 45.4956C239.77 31.2291 252.696 19.9053 267.671 12.4793C270.028 11.709 272.401 10.9387 274.82 10.2916L274.758 9.45964C278.348 8.50443 281.968 7.67248 285.681 7.31812L285.466 6.43994Z" fill="url(#paint1_linear_280_1849)"/>
<path d="M56.832 87.5095C59.2663 87.5557 61.7159 87.6482 64.1502 87.7252L63.8266 88.8961C66.3225 89.5894 68.8183 90.3751 71.3142 91.0838L71.4375 91.9004C76.7065 94.8122 81.1898 98.972 84.456 104.041C85.5345 105.674 86.7054 107.261 87.9841 108.771C88.169 110.096 88.5388 112.745 88.7237 114.07L90.5416 114.024C90.2489 114.764 89.6789 116.227 89.3861 116.967L91.3274 117.029C91.5739 126.396 92.6215 136.025 89.648 145.115L88.8777 144.714C88.3539 147.333 88.3693 150.507 85.5345 151.786C85.3496 152.51 84.9799 153.958 84.7796 154.667C83.6241 156.177 82.4686 157.687 81.2669 159.181C79.6184 162.031 78.8326 165.775 75.5202 167.192C75.6897 167.562 76.044 168.302 76.2135 168.671C72.9165 172.662 69.8814 176.914 67.6783 181.628L67.0158 181.536C66.3687 183.246 65.737 184.956 65.1054 186.682L64.0731 186.343C63.2258 188.176 62.363 189.994 61.4694 191.812C58.5884 195.386 56.6626 199.654 53.381 202.92C53.2731 203.814 53.0882 205.601 52.9958 206.51L51.3165 206.325L51.64 208.112L49.9761 208.02C49.8836 209.145 49.6988 211.394 49.6063 212.519C49.0825 212.519 48.0195 212.534 47.4956 212.534C46.8023 214.66 46.1707 216.94 44.0908 218.127C43.9213 218.866 43.5823 220.361 43.4283 221.1C41.3176 222.194 40.5627 224.335 39.9926 226.477H39.438C38.19 228.557 36.9113 230.606 35.6942 232.701C35.3861 232.701 34.7698 232.686 34.4617 232.67C34.3846 233.81 34.2459 236.06 34.1843 237.185C33.6143 237.185 32.505 237.154 31.9504 237.154C31.3187 239.264 30.9489 241.699 28.7304 242.777C28.4993 243.517 28.0679 244.996 27.8368 245.735C23.9082 250.403 20.3955 255.842 14.5255 258.276C14.4793 258.615 14.4177 259.293 14.3715 259.632C11.5521 260.664 8.79428 261.866 6.20598 263.391C5.11211 263.437 2.92438 263.561 1.83051 263.622L1.79969 267.351C1.06018 266.211 -0.418853 263.9 -1.15837 262.759L-0.557513 266.611C-18.5832 266.95 -36.6089 266.811 -54.6346 266.719C-54.5422 265.163 -54.4344 263.622 -54.3419 262.082C-53.7102 262.112 -52.4315 262.189 -51.7998 262.236L-52.2004 260.217L-50.4132 260.279C-50.3208 259.154 -50.1205 256.874 -50.0281 255.749C-49.381 255.78 -48.1022 255.842 -47.4706 255.873C-47.3473 254.671 -47.1162 252.268 -47.0084 251.05C-46.4845 251.081 -45.4523 251.112 -44.9285 251.143C-44.2352 249.001 -43.5881 246.737 -41.4312 245.627C-41.3387 244.657 -41.123 242.715 -41.0152 241.745C-40.3065 241.745 -38.8737 241.714 -38.165 241.699C-38.1342 240.543 -38.0571 238.201 -38.0109 237.046L-36.6551 237.477C-35.8232 235.336 -34.9604 233.21 -34.1747 231.053C-33.7433 231.084 -32.8959 231.161 -32.48 231.191C-31.8637 228.973 -31.4015 226.523 -28.9981 225.568C-28.8748 224.597 -28.6591 222.672 -28.5513 221.701L-27.5807 222.024C-26.3019 219.806 -25.0232 217.572 -23.7444 215.369L-22.0497 215.615C-22.2962 214.876 -22.8046 213.412 -23.0511 212.688L-20.9712 212.842L-21.341 210.839L-20.0777 211.055C-19.446 209.021 -18.8605 206.88 -17.0272 205.616C-16.1644 203.768 -15.3478 201.903 -14.5313 200.055L-12.7749 200.178C-13.006 199.469 -13.4682 198.083 -13.6993 197.374L-11.6194 197.436L-12.0971 195.463C-11.6503 195.51 -10.7413 195.618 -10.2945 195.679C-10.1558 194.77 -9.8939 192.952 -9.77065 192.043C-7.99889 190.888 -6.92044 189.162 -6.24255 187.19C-4.51701 185.064 -3.08419 182.722 -2.02113 180.196L-0.495874 180.211C-0.619127 179.703 -0.865643 178.67 -0.988896 178.146C1.09099 175.774 2.7549 173.093 4.24933 170.335C5.75918 168.718 7.26904 167.1 8.71726 165.451C9.2719 164.003 9.82654 162.57 10.3812 161.138C11.9681 159.042 13.4625 156.901 14.9877 154.775C16.9752 151.123 19.1475 147.564 21.782 144.36C22.0131 143.605 22.4599 142.08 22.691 141.325C23.8773 139.769 24.9712 138.166 26.0342 136.533C27.4208 134.145 28.8228 131.68 31.026 129.939C31.1184 129.184 31.2879 127.674 31.3649 126.935C33.3986 125.61 34.4617 123.453 35.3244 121.265C36.3413 119.678 37.4043 118.122 38.4674 116.582C39.4534 114.979 40.424 113.377 41.3946 111.79C42.9507 109.649 44.3373 107.384 45.6622 105.088C46.2939 103.763 46.941 102.439 47.5881 101.114C49.2366 98.9566 50.8697 96.7689 52.5336 94.612C52.7493 93.9033 53.1653 92.4859 53.381 91.7772C54.5519 90.3597 55.6919 88.9423 56.832 87.5095Z" fill="url(#paint2_linear_280_1849)"/>
<path d="M110.278 179.025C112.234 177.977 114.191 176.929 116.147 175.866C118.15 175.82 120.153 175.758 122.156 175.712C122.171 176.005 122.187 176.59 122.187 176.883C124.02 177.715 125.838 178.562 127.672 179.41C130.075 183.724 132.74 187.914 135.452 192.059C135.668 192.767 136.13 194.185 136.346 194.893C141.122 201.734 144.835 209.237 149.102 216.386C150.612 219.097 152.153 221.778 153.817 224.412C158.146 233.333 165.51 240.743 168.114 250.511C168.823 251.081 170.225 252.206 170.933 252.776C170.394 252.606 169.316 252.268 168.776 252.083C168.206 254.825 167.528 257.521 166.881 260.248C164.863 262.205 162.906 264.238 161.273 266.549C146.498 267.859 131.6 266.796 116.779 267.073C103.129 266.858 89.4787 267.397 75.8592 266.58C75.9209 266.072 76.0287 265.04 76.0903 264.516C71.4375 262.035 68.9263 257.367 68.8184 252.175C69.3268 250.342 69.789 248.508 70.2512 246.69L71.037 246.675C72.7163 243.193 74.9502 239.973 76.2136 236.291C78.3705 235.474 78.9097 233.41 79.2024 231.376C80.2501 229.99 81.3132 228.603 82.407 227.247C82.33 226.893 82.1914 226.184 82.1297 225.83C83.9169 223.01 85.7195 220.222 87.9534 217.726C88.0767 216.817 88.3231 214.999 88.4464 214.075L89.4632 214.383C91.0963 210.855 92.9451 207.419 95.1637 204.23C96.4578 202.119 97.4131 199.824 98.2604 197.513C98.6764 197.312 99.4929 196.912 99.9089 196.711C100.587 194.4 101.434 192.136 102.836 190.179C104.469 187.683 105.964 185.126 107.35 182.491C108.321 181.336 109.307 180.18 110.278 179.025Z" fill="url(#paint3_linear_280_1849)"/>
</g>
<defs>
<linearGradient id="paint0_linear_280_1849" x1="-7.66" y1="0" x2="-7.66" y2="266.888" gradientUnits="userSpaceOnUse">
<stop stop-color="#12598E"/>
<stop offset="1" stop-color="#236EA7"/>
</linearGradient>
<linearGradient id="paint1_linear_280_1849" x1="340.232" y1="4.73608" x2="340.232" y2="266.857" gradientUnits="userSpaceOnUse">
<stop stop-color="#12598E"/>
<stop offset="1" stop-color="#236EA7"/>
</linearGradient>
<linearGradient id="paint2_linear_280_1849" x1="18.5364" y1="87.5095" x2="18.5364" y2="267.351" gradientUnits="userSpaceOnUse">
<stop stop-color="#12598E"/>
<stop offset="1" stop-color="#236EA7"/>
</linearGradient>
<linearGradient id="paint3_linear_280_1849" x1="119.876" y1="175.712" x2="119.876" y2="267.22" gradientUnits="userSpaceOnUse">
<stop stop-color="#12598E"/>
<stop offset="1" stop-color="#236EA7"/>
</linearGradient>
</defs>
</svg>
