<svg width="1440" height="1007" viewBox="0 0 1440 1007" fill="none" xmlns="http://www.w3.org/2000/svg">
<g opacity="0.26">
<path d="M-638 0C-329.117 1.18455 -20.2336 -0.690995 288.65 0.559366L288.728 2.9943C299.911 3.22463 311.056 3.71816 322.24 4.14592L311.525 6.58085C325.055 5.4621 337.882 9.60805 350.434 13.2275C351.099 13.1946 352.389 13.0959 353.054 13.063C359.154 15.2347 365.333 17.176 371.511 19.2819C376.047 20.8284 380.583 22.342 385.197 23.8556C387.035 24.5795 390.789 26.0931 392.666 26.8499C403.342 31.4565 413.783 36.4908 423.989 41.8213C443.815 51.8242 460.747 65.2162 478.265 77.7198C490.427 89.5982 502.901 101.279 514.006 113.914C518.62 120.759 524.447 126.977 530.508 132.966C532.503 136.651 534.927 140.172 538.173 143.232C542.67 150.043 547.479 156.723 552.915 163.04C555.926 167.285 558.781 171.563 561.713 175.873C566.484 182.948 571.841 189.693 577.589 196.241C582.243 203.743 587.639 210.916 593.153 217.991C595.734 221.577 598.393 225.098 601.13 228.652C605.354 235.43 610.554 241.682 615.051 248.328C620.721 256.028 626.978 263.431 632.726 271.131C634.877 274.553 637.067 278.008 639.296 281.463C641.838 284.49 644.34 287.55 646.921 290.61C649.307 293.999 651.731 297.421 654.038 300.876C657.714 306.898 662.133 312.524 667.412 317.657C667.959 319.171 669.015 322.198 669.562 323.712C674.059 328.351 678.4 333.155 682.975 337.762C683.405 339.637 684.226 343.421 684.617 345.297L688.762 345.165L687.629 349.213L690.287 348.949C694.198 356.616 699.79 363.559 705.225 370.534C708.002 373.924 710.895 377.313 713.945 380.57C714.61 382.051 715.901 384.979 716.526 386.427C720.711 389.487 723.37 393.502 724.817 398.01L727.319 397.944L726.967 399.918C729.118 403.077 731.308 406.236 733.497 409.394C736.157 412.619 738.737 415.844 741.357 419.134C748.553 429.334 755.709 439.568 763.842 449.274C767.753 454.769 771.663 460.297 775.965 465.595C779.328 469.017 781.361 473.097 783.121 477.309L784.607 476.947C787.266 482.343 790.59 487.542 794.93 492.149C797.628 495.307 800.287 498.565 802.712 501.954C804.941 505.837 807.756 509.489 811.94 512.187C812.253 514.194 812.879 518.242 813.192 520.282L817.376 519.13L816.242 523.276C817.532 523.375 820.152 523.539 821.443 523.638L819.761 529.626L825.47 529.956C825.236 531.403 824.767 534.365 824.532 535.845L829.264 536.372C829.224 537.491 829.146 539.761 829.107 540.88C833.917 543.15 836.459 547.066 838.531 551.212C845.648 555.654 844.671 563.386 846 570C800.053 569.21 754.066 570.724 708.119 569.046L721.766 565.262C717.152 565.459 707.963 565.854 703.348 566.051L703.583 561.971C701.628 562.366 697.678 563.189 695.723 563.584L695.488 558.78C693.611 559.142 689.858 559.898 687.98 560.293L687.746 557.595C682.858 556.147 678.204 554.469 674.138 551.771C657.909 543.479 648.329 529.594 636.05 517.978C636.519 517.32 637.497 516.004 637.966 515.346C633.352 511.365 629.755 506.824 626.9 501.855C624.28 498.631 621.504 495.472 618.766 492.379C616.576 488.99 614.348 485.633 612.197 482.31C607.856 476.881 603.789 471.353 599.723 465.825C593.935 459.146 588.656 452.137 584.707 444.536L581.695 444.898L582.83 440.95C582.047 440.818 580.522 440.522 579.74 440.39C576.182 432.756 570.864 425.879 565.154 419.299C562.3 415.975 559.367 412.685 556.317 409.493C555.809 407.947 554.792 404.821 554.284 403.274C549.2 400.773 547.088 396.331 545.642 391.824L542.983 391.955L543.725 388.27C542.435 388.171 539.854 387.974 538.564 387.875L539.776 383.565C534.614 377.773 530.039 371.653 524.173 366.356C524.017 365.336 523.704 363.328 523.548 362.308H519.129L520.106 358.459L516.157 358.886C515.805 357.011 515.062 353.227 514.71 351.351C507.32 345.56 502.705 337.894 497.856 330.589C493.946 326.147 490.231 321.639 486.399 317.197C484.483 314.071 482.606 310.978 480.69 307.885L480.885 305.483L475.802 305.746C476.075 304.627 476.662 302.357 476.975 301.238C471.305 295.414 466.339 289.195 461.802 282.779C457.266 276.757 452.496 270.901 448.39 264.715C441.547 255.666 435.837 245.959 427.273 237.93C426.843 236.483 425.905 233.554 425.475 232.074C417.615 223.65 411.28 214.404 404.515 205.388C402.012 202.032 399.431 198.742 396.811 195.451C394.309 192.194 391.806 189.002 389.303 185.777C378.237 173.043 364.59 162.218 349.495 152.906C341.831 149.155 334.206 145.437 326.502 141.784C318.564 139.086 310.626 136.487 302.923 133.361C293.42 131.452 283.605 131.058 273.907 130.794L273.986 128.129C14.4908 127.668 -244.965 127.767 -504.42 127.767L-504.029 125.003C-510.794 124.937 -517.599 124.773 -524.403 124.641L-524.129 120.331C-525.928 120.89 -529.525 121.976 -531.363 122.502C-531.441 121.417 -531.637 119.245 -531.715 118.192C-534.726 118.126 -540.748 118.027 -543.759 117.962C-543.759 116.81 -543.837 114.54 -543.837 113.388C-548.804 111.973 -553.652 110.229 -557.602 107.268C-563.037 102.332 -568.903 97.7913 -575.121 93.5467C-574.886 92.3951 -574.456 90.026 -574.26 88.8743L-579.344 89.1375L-578.64 85.0903C-580.087 85.0903 -582.941 85.0903 -584.388 85.0903L-581.338 79.4966L-587.243 78.7398C-587.047 77.2262 -586.617 74.232 -586.422 72.7184L-591.544 72.5209C-591.427 71.3034 -591.153 68.8685 -591.036 67.6511C-596.823 65.4465 -598.739 60.6096 -600.186 55.8385L-603.393 56.4637L-601.946 52.1532L-606.247 53.3048C-606.404 50.6067 -606.717 45.2433 -606.873 42.5451C-608.555 42.6439 -611.996 42.8084 -613.677 42.8742C-613.912 40.3406 -614.342 35.2733 -614.577 32.7397L-619.113 33.4307L-617.627 29.0216L-623.297 29.4164C-622.71 27.837 -621.498 24.7111 -620.912 23.1646L-626.23 23.5594C-625.995 22.4736 -625.448 20.2361 -625.213 19.1173L-629.827 19.8741C-629.945 17.4063 -630.218 12.4707 -630.375 10.0029C-632.173 10.0029 -635.771 10.0029 -637.57 10.0029C-637.726 6.67954 -637.883 3.32333 -638 0Z" fill="url(#paint0_linear_27_114)"/>
<path d="M1269.87 451.637C1281.45 450.88 1292.79 447.724 1304.43 448.02C1367.14 448.184 1429.82 447.954 1492.49 448.25C1526.76 452.393 1561.52 449.039 1596.01 450.288C1595.81 473.603 1596.11 496.95 1595.48 520.297L1591.47 519.936C1591.77 521.448 1592.36 524.474 1592.66 525.986L1588.41 526.973C1588.87 528.518 1589.83 531.576 1590.29 533.122L1586.87 533.188C1584.76 538.712 1582.03 544.006 1577.53 547.919C1570.76 556.371 1562.14 563.013 1552.18 567.222L1553.29 569.425C1549.84 569.557 1542.9 569.754 1539.42 569.853L1540.04 574.128C1538.3 573.536 1534.88 572.385 1533.14 571.793L1533.4 575.739C1461.48 575.739 1389.57 575.903 1317.62 575.838C1307.52 576.002 1297 574.719 1287.5 578.863C1286.58 578.797 1284.74 578.665 1283.81 578.6C1283.62 579.323 1283.19 580.803 1282.96 581.526C1279.24 583.401 1275.59 585.341 1271.98 587.314C1268.66 592.115 1264.97 596.653 1260.93 600.829C1260.34 605.729 1259.88 610.661 1259.42 615.594L1253.99 615.429C1254.12 623.847 1252.05 633.745 1259.42 639.993C1260.27 646.307 1260.83 653.311 1267.24 656.632C1266.91 657.75 1266.25 659.953 1265.93 661.071L1270.17 661.236L1269.81 664.985L1271.91 665.182C1273.72 668.963 1275.69 672.712 1277.73 676.395C1280.03 679.815 1282.33 683.334 1284.77 686.721C1287.2 690.831 1289.6 694.974 1291.9 699.183C1293.71 702.866 1295.98 706.319 1298.84 709.311C1299.34 710.824 1300.32 713.784 1300.82 715.296C1303.81 718.256 1306.27 721.741 1308.38 725.457C1313.97 734.237 1319.49 743.05 1325.25 751.731C1330.08 757.157 1333.99 763.306 1336.76 770.014L1340.21 770.31L1338.76 775.736C1339.49 775.9 1340.93 776.229 1341.66 776.427C1349.75 790.698 1358.33 804.805 1368.06 818.057C1368.39 819.997 1369.05 823.877 1369.38 825.785C1370.43 825.883 1372.5 826.048 1373.55 826.113C1374.93 830.783 1376.81 835.387 1381.41 837.82C1381.38 838.938 1381.28 841.24 1381.25 842.391L1385.39 842.029L1384.87 846.205L1389.11 845.613C1388.94 847.192 1388.68 850.349 1388.52 851.927C1390.16 851.861 1393.38 851.697 1394.99 851.631L1394.93 854.624C1399.3 857.419 1403.67 860.247 1408.15 863.009L1408.54 866.198C1409.99 865.837 1412.88 865.179 1414.33 864.817L1415.02 869.257C1416.57 868.961 1419.62 868.369 1421.14 868.106L1420.87 871.591C1427.78 873.137 1434.65 874.847 1441.69 876.031L1440.14 878.398C1487.73 879.319 1535.31 878.661 1582.92 878.826L1582.07 881.456C1586.87 881.621 1591.7 881.818 1596.57 882.048L1595.32 888.756C1596.77 887.31 1599.69 884.383 1601.14 882.936L1602.39 888.625C1603.94 888.395 1607.06 887.934 1608.6 887.704L1608.77 892.045C1609.92 892.045 1612.19 892.078 1613.34 892.078C1616.04 894.676 1618.77 897.24 1621.49 899.805C1621.89 900.496 1622.65 901.91 1623.01 902.633C1628.96 908.026 1634.42 913.978 1639.61 920.16C1638.46 921.147 1636.13 923.186 1634.98 924.205L1640.8 924.073C1641.78 929.236 1642.87 934.432 1644.22 939.561C1644.81 962.185 1644.35 984.842 1644.48 1007.47C1572.53 1007.14 1500.55 1007.53 1428.6 1007.17L1446.26 1002.99C1438.79 1003.26 1431.33 1003.49 1423.87 1003.68L1425.41 1000.56C1419.49 1000.43 1413.61 1000.2 1407.75 1000.07L1408.8 996.844C1405.09 996.877 1401.37 996.91 1397.69 996.976L1399.01 993.918C1395.45 993.786 1388.32 993.556 1384.77 993.425L1385.23 989.084C1383.65 989.643 1380.52 990.695 1378.95 991.221L1378.98 987.078C1376.38 987.045 1371.19 987.012 1368.59 987.012L1369.18 982.606L1364.81 985.039L1365.76 980.666C1363.2 980.633 1358.07 980.567 1355.5 980.534L1356.26 977.608C1351.62 975.898 1346.98 974.155 1342.35 972.544C1342.38 971.656 1342.41 969.913 1342.41 969.025C1338.17 967.447 1334.03 965.539 1330.58 962.58C1327.25 960.442 1323.93 958.404 1320.58 956.431C1310.81 949.229 1302.62 940.285 1293.42 932.492C1293.32 931.373 1293.09 929.105 1292.99 927.986C1291.74 927.888 1289.27 927.723 1288.06 927.625C1284.74 922.265 1281.32 916.971 1278.16 911.545C1277.14 911.512 1275.17 911.446 1274.18 911.413C1273.79 909.44 1272.96 905.527 1272.57 903.554C1268.16 901.022 1266.72 896.221 1265.17 891.782C1264.28 891.749 1262.51 891.716 1261.62 891.683C1260.5 886.816 1259.25 881.851 1254.45 879.385C1254.09 877.412 1253.36 873.499 1253.04 871.526L1249.58 872.249L1251.03 868.04L1247.22 869.125C1246.99 866.626 1246.52 861.628 1246.29 859.129C1245.18 859.096 1242.97 858.997 1241.86 858.931C1240.38 854.689 1238.8 850.48 1235.9 847.027C1234.59 845.416 1231.96 842.226 1230.64 840.615C1230.81 839.464 1231.14 837.129 1231.3 835.979L1228.31 835.683C1224.89 828.119 1219.96 821.444 1215.25 814.67C1211.18 807.567 1206.87 800.629 1202.92 793.493L1201.61 793.986C1200.13 790.271 1198.58 786.588 1197.13 782.872L1195.46 783.135C1191.71 775.835 1187.37 768.896 1183.13 761.925C1179.77 757.19 1176.45 752.487 1172.83 747.982C1172.24 746.568 1171.09 743.708 1170.53 742.294C1166.72 736.868 1163.2 731.245 1160.34 725.293C1157.94 721.741 1155.47 718.289 1152.84 714.967C1152.45 713.126 1151.69 709.443 1151.33 707.602L1147.97 707.766L1149.19 703.984C1148.3 703.951 1146.53 703.951 1145.64 703.951C1145.38 701.255 1144.82 695.829 1144.52 693.1C1137.52 690.239 1138.67 682.347 1137.68 676.264C1136.66 672.252 1135.67 668.273 1134.75 664.294L1132.39 664.985C1132.68 647.721 1126.83 630.654 1129.89 613.39C1131.4 604.249 1132.02 594.976 1132.42 585.735L1134.72 586.525C1135.67 582.414 1136.69 578.304 1137.78 574.226C1138.21 570.675 1138.6 567.156 1139.06 563.605C1144.68 554.496 1148.96 544.664 1153.5 534.996C1172.34 504.546 1199.93 480.377 1231.89 464.527C1236.92 462.883 1241.99 461.239 1247.15 459.858L1247.02 458.082C1254.68 456.043 1262.41 454.267 1270.33 453.511L1269.87 451.637Z" fill="url(#paint1_linear_27_114)" fill-opacity="0.64"/>
<path d="M267.585 187C273.757 187.099 279.967 187.296 286.138 187.461L285.318 189.961C291.645 191.441 297.972 193.119 304.3 194.632L304.612 196.375C317.97 202.593 329.336 211.475 337.616 222.298C340.351 225.785 343.319 229.173 346.561 232.397C347.029 235.226 347.967 240.884 348.436 243.713L353.044 243.615C352.302 245.194 350.857 248.319 350.115 249.898L355.036 250.03C355.661 270.031 358.317 290.591 350.779 310L348.826 309.144C347.498 314.737 347.537 321.514 340.351 324.244C339.882 325.79 338.945 328.882 338.437 330.396C335.507 333.619 332.578 336.843 329.532 340.034C325.352 346.12 323.36 354.114 314.963 357.14C315.392 357.93 316.291 359.509 316.72 360.298C308.362 368.819 300.668 377.898 295.082 387.964L293.403 387.767C291.762 391.418 290.161 395.07 288.559 398.754L285.943 398.031C283.794 401.945 281.607 405.827 279.342 409.709C272.038 417.341 267.156 426.453 258.836 433.427C258.563 435.335 258.094 439.151 257.86 441.092L253.603 440.697L254.423 444.513L250.204 444.316C249.97 446.717 249.501 451.52 249.267 453.922C247.939 453.922 245.244 453.955 243.916 453.955C242.159 458.494 240.557 463.363 235.284 465.896C234.855 467.475 233.995 470.666 233.605 472.245C228.254 474.581 226.34 479.153 224.895 483.726H223.489C220.325 488.167 217.083 492.542 213.998 497.016C213.216 497.016 211.654 496.983 210.873 496.95C210.678 499.384 210.326 504.187 210.17 506.589C208.725 506.589 205.913 506.523 204.507 506.523C202.905 511.03 201.968 516.227 196.343 518.53C195.757 520.109 194.664 523.267 194.078 524.846C184.118 534.814 175.213 546.426 160.332 551.624C160.215 552.348 160.058 553.795 159.941 554.519C152.794 556.723 145.802 559.289 139.24 562.546C136.467 562.644 130.921 562.907 128.148 563.039L128.07 571C126.195 568.566 122.445 563.631 120.571 561.197L122.094 569.421C76.396 570.145 30.698 569.849 -15 569.651C-14.7657 566.329 -14.4922 563.039 -14.2579 559.749C-12.6565 559.815 -9.41465 559.98 -7.81327 560.078L-8.82881 555.769L-4.29806 555.901C-4.06371 553.499 -3.55596 548.63 -3.32161 546.229C-1.68117 546.295 1.56067 546.426 3.16205 546.492C3.47451 543.926 4.0604 538.794 4.3338 536.196C5.66178 536.261 8.27864 536.327 9.60661 536.393C11.3642 531.82 13.0047 526.985 18.4728 524.616C18.7072 522.544 19.254 518.399 19.5274 516.326C21.3241 516.326 24.9564 516.26 26.7531 516.227C26.8312 513.76 27.0265 508.76 27.1437 506.293L30.5808 507.214C32.69 502.641 34.8772 498.102 36.8692 493.496C37.9628 493.562 40.111 493.726 41.1656 493.792C42.7279 489.055 43.8997 483.824 49.9927 481.785C50.3052 479.712 50.852 475.6 51.1254 473.528L53.5861 474.219C56.8279 469.482 60.0697 464.712 63.3115 460.007L67.6079 460.534C66.983 458.955 65.694 455.83 65.0691 454.283L70.342 454.612L69.4045 450.336L72.6073 450.796C74.2087 446.454 75.6929 441.881 80.3408 439.184C82.5281 435.236 84.5982 431.256 86.6683 427.308L91.1209 427.572C90.535 426.058 89.3633 423.098 88.7774 421.584L94.0502 421.716L92.8394 417.505C93.9721 417.604 96.2766 417.834 97.4092 417.966C97.7608 416.025 98.4247 412.143 98.7372 410.202C103.229 407.735 105.963 404.051 107.681 399.84C112.056 395.3 115.688 390.3 118.383 384.905L122.25 384.938C121.938 383.852 121.313 381.648 121 380.53C126.273 375.464 130.491 369.74 134.28 363.851C138.108 360.397 141.935 356.943 145.607 353.423C147.013 350.331 148.419 347.271 149.825 344.212C153.848 339.738 157.637 335.166 161.504 330.626C166.542 322.829 172.049 315.23 178.728 308.388C179.314 306.776 180.447 303.519 181.033 301.907C184.04 298.585 186.813 295.163 189.508 291.676C193.023 286.577 196.578 281.314 202.163 277.597C202.397 275.985 202.827 272.761 203.022 271.182C208.178 268.353 210.873 263.747 213.06 259.076C215.638 255.688 218.333 252.365 221.028 249.076C223.528 245.654 225.988 242.233 228.449 238.845C232.394 234.272 235.909 229.436 239.268 224.535C240.87 221.706 242.51 218.877 244.15 216.048C248.33 211.442 252.47 206.771 256.688 202.165C257.235 200.652 258.29 197.626 258.836 196.112C261.805 193.086 264.695 190.059 267.585 187Z" fill="url(#paint2_linear_27_114)"/>
<path d="M403.155 382.059C408.118 379.826 413.081 377.594 418.043 375.328C423.123 375.23 428.203 375.098 433.283 375C433.322 375.624 433.362 376.871 433.362 377.495C438.012 379.268 442.623 381.074 447.273 382.88C453.369 392.072 460.129 401.002 467.006 409.834C467.554 411.344 468.726 414.364 469.273 415.875C481.387 430.452 490.804 446.44 501.628 461.674C505.458 467.452 509.366 473.165 513.586 478.779C524.566 497.788 543.245 513.58 549.849 534.395C551.647 535.609 555.202 538.006 557 539.221C555.632 538.86 552.897 538.137 551.529 537.743C550.083 543.587 548.364 549.333 546.723 555.144C541.604 559.313 536.641 563.647 532.499 568.572C495.024 571.362 457.237 569.097 419.646 569.688C385.024 569.228 350.402 570.377 315.858 568.637C316.014 567.554 316.288 565.354 316.444 564.238C304.643 558.952 298.274 549.004 298 537.94C299.29 534.033 300.462 530.127 301.634 526.252L303.627 526.22C307.886 518.8 313.552 511.938 316.757 504.092C322.227 502.351 323.595 497.952 324.338 493.618C326.995 490.664 329.691 487.709 332.466 484.82C332.27 484.065 331.919 482.554 331.762 481.799C336.295 475.791 340.867 469.849 346.533 464.53C346.846 462.593 347.471 458.719 347.784 456.749L350.363 457.406C354.505 449.888 359.194 442.566 364.821 435.77C368.104 431.272 370.526 426.381 372.676 421.456C373.731 421.029 375.802 420.175 376.857 419.749C378.576 414.824 380.725 409.998 384.281 405.828C388.423 400.51 392.214 395.06 395.731 389.446C398.193 386.983 400.693 384.521 403.155 382.059Z" fill="url(#paint3_linear_27_114)"/>
</g>
<defs>
<linearGradient id="paint0_linear_27_114" x1="-380.809" y1="19.4787" x2="792.671" y2="413.187" gradientUnits="userSpaceOnUse">
<stop stop-color="#DCF0FF"/>
<stop offset="1" stop-color="#C8C8C8"/>
</linearGradient>
<linearGradient id="paint1_linear_27_114" x1="1218.35" y1="467.119" x2="1665.58" y2="520.226" gradientUnits="userSpaceOnUse">
<stop stop-color="#DCF0FF"/>
<stop offset="1" stop-color="#C8C8C8"/>
</linearGradient>
<linearGradient id="paint2_linear_27_114" x1="49.2979" y1="200.122" x2="370.708" y2="240.139" gradientUnits="userSpaceOnUse">
<stop stop-color="#DCF0FF"/>
<stop offset="1" stop-color="#C8C8C8"/>
</linearGradient>
<linearGradient id="paint3_linear_27_114" x1="342.887" y1="381.664" x2="564.261" y2="419.554" gradientUnits="userSpaceOnUse">
<stop stop-color="#DCF0FF"/>
<stop offset="1" stop-color="#C8C8C8"/>
</linearGradient>
</defs>
</svg>
