<svg width="129" height="129" viewBox="0 0 129 129" fill="none" xmlns="http://www.w3.org/2000/svg">
<path d="M47.725 2.14412C48.7857 1.71328 50.0984 2.44647 50.3201 3.5601C50.436 4.21518 50.3856 4.88285 50.3957 5.54549C50.3856 9.65736 50.3932 13.7692 50.3881 17.8836C51.7109 18.8159 53.0664 19.7002 54.4219 20.5821C55.7774 19.7002 57.1354 18.8209 58.4532 17.8836C58.4506 13.4291 58.4582 8.97457 58.4481 4.52004C58.1433 2.95541 59.8187 1.45629 61.3053 2.20711C65.4146 3.87 68.8513 7.1202 70.7586 11.1187C72.691 15.087 73.0841 19.7708 71.8445 24.0036C70.4864 28.8638 66.9667 32.9882 62.4844 35.2684C62.4869 40.3075 62.4794 45.349 62.4869 50.3881C67.8611 50.3931 73.2327 50.3931 78.6069 50.3881C78.6195 43.4972 78.5968 36.6088 78.617 29.7179C78.7732 27.4024 76.2385 25.7672 76.6442 23.4115C77.3043 16.9514 77.9342 10.4913 78.5918 4.03125C78.5993 2.96045 79.5164 1.99295 80.6074 2.0257C83.2227 1.99799 85.8379 2.02319 88.4557 2.01563C89.2998 1.95516 90.1816 2.39104 90.5218 3.18973C90.7687 3.8574 90.7687 4.58051 90.8543 5.27842C91.4515 11.3228 92.0536 17.3671 92.6684 23.409C93.0362 25.5884 90.9098 27.148 90.7032 29.2089C90.7057 36.2687 90.6981 43.3284 90.7057 50.3881C98.1862 50.4032 105.667 50.3705 113.145 50.4032C118.481 50.4435 123.578 53.8247 125.722 58.7026C126.586 60.5922 126.989 62.6733 126.982 64.7469C126.987 77.3521 126.982 89.9548 126.984 102.56C127.032 104.807 126.135 107.07 124.49 108.617C122.961 110.111 120.812 110.897 118.685 110.859C82.5626 110.859 46.4375 110.859 10.315 110.859C8.12553 110.905 5.92094 110.063 4.38402 108.491C2.80932 106.954 1.97031 104.747 2.01566 102.56C2.01818 89.9548 2.01314 77.3521 2.01566 64.7494C2.00307 62.5474 2.46666 60.3403 3.43668 58.3599C5.65639 53.6585 10.6551 50.4511 15.8554 50.4032C26.0218 50.3705 36.1881 50.4032 46.3569 50.3881C46.367 45.349 46.3544 40.31 46.3619 35.2734C43.1017 33.5702 40.2798 30.9827 38.5287 27.7274C36.1049 23.3762 35.6136 18.0147 37.2009 13.2956C38.8361 8.27162 42.7943 4.05393 47.725 2.14412ZM82.429 6.06955C81.8848 11.6982 81.2978 17.3218 80.7535 22.9504C80.557 24.1623 81.3507 25.1928 81.9125 26.188C83.7417 26.2208 85.5734 26.2157 87.4051 26.188C87.9569 25.1903 88.6976 24.1522 88.5414 22.9504C87.9947 17.3243 87.4001 11.7032 86.8659 6.07459C85.3869 6.02168 83.908 6.02672 82.429 6.06955ZM40.562 21.6478C41.3884 26.1225 44.5378 30.0958 48.7253 31.8847C49.6146 32.2223 50.4511 32.963 50.3781 33.9986C50.4209 39.4559 50.3604 44.9182 50.4033 50.378C53.0815 50.4032 55.7623 50.4007 58.4406 50.378C58.4683 45.087 58.4506 39.796 58.4456 34.505C58.4557 33.8297 58.4683 33.0487 59.015 32.5649C59.6273 32.0258 60.426 31.7788 61.1289 31.3883C65.7296 28.9721 68.7102 23.8247 68.5212 18.6319C68.4154 14.2656 66.1906 9.9068 62.5197 7.48553C62.4214 11.2925 62.5323 15.1021 62.4718 18.9091C62.5348 19.8589 61.8167 20.5569 61.076 21.0205C59.2544 22.2071 57.4579 23.4392 55.6388 24.6309C54.9208 25.1449 53.923 25.1449 53.205 24.6309C51.3859 23.4392 49.592 22.2021 47.7653 21.0154C47.0271 20.5543 46.304 19.8615 46.3695 18.9116C46.3191 15.1071 46.4098 11.3001 46.3342 7.49561C41.7915 10.4712 39.4937 16.3568 40.562 21.6478ZM82.6533 30.247C82.6306 36.9565 82.6331 43.6685 82.6533 50.378C83.9886 50.4083 85.324 50.4083 86.6593 50.378C86.682 43.6685 86.682 36.9565 86.6593 30.2495C85.324 30.2167 83.9886 30.2167 82.6533 30.247ZM9.13586 57.2589C7.1807 59.1158 6.05195 61.789 6.05195 64.4849C6.04439 70.5343 6.04439 76.5862 6.04943 82.6381C45.0165 82.6431 83.9836 82.6431 122.951 82.6381C122.958 76.6719 122.951 70.7081 122.953 64.7419C122.993 62.1442 122.034 59.534 120.242 57.6393C118.32 55.538 115.473 54.3639 112.633 54.4219C80.5444 54.4219 48.4557 54.4219 16.3694 54.4219C13.7088 54.374 11.0381 55.3869 9.13586 57.2589ZM6.04943 86.6744C6.04439 92.0536 6.04439 97.4328 6.04943 102.809C6.00156 104.946 7.92396 106.861 10.0555 106.823C46.3519 106.831 82.6482 106.831 118.945 106.823C121.076 106.866 122.993 104.954 122.948 102.82C122.958 97.4378 122.953 92.0561 122.951 86.6744C83.9836 86.6694 45.0165 86.6694 6.04943 86.6744Z" fill="#01518E"/>
<path d="M95.8202 66.5962C97.9316 66.2359 100.192 67.1304 101.499 68.8235C103.301 71.0281 103.182 74.4823 101.26 76.5736C99.7507 78.3045 97.2034 79.0377 95.0089 78.3397C92.5121 77.6292 90.6728 75.1576 90.7081 72.5625C90.6577 69.67 92.953 66.9867 95.8202 66.5962ZM96.0873 70.6527C94.6461 71.0885 94.2581 73.1823 95.4549 74.0994C96.5181 75.087 98.4305 74.4294 98.7101 73.021C99.1284 71.5521 97.5033 70.0958 96.0873 70.6527Z" fill="#01518E"/>
<path d="M111.943 66.5962C114.057 66.2359 116.317 67.1278 117.624 68.8235C119.423 71.0256 119.307 74.4798 117.387 76.5736C115.876 78.3045 113.328 79.0377 111.134 78.3398C108.637 77.6293 106.798 75.1576 106.833 72.5625C106.783 69.6726 109.078 66.9893 111.943 66.5962ZM112.212 70.6527C110.771 71.086 110.383 73.1823 111.58 74.0994C112.643 75.087 114.555 74.432 114.835 73.021C115.253 71.5521 113.628 70.0959 112.212 70.6527Z" fill="#01518E"/>
<path d="M14.7217 90.8719C15.2608 90.7384 15.8177 90.7056 16.3719 90.7006C48.5438 90.7081 80.7183 90.698 112.89 90.7056C114.528 90.7106 116.155 91.401 117.274 92.6028C118.877 94.2808 119.383 96.9162 118.456 99.0553C117.579 101.278 115.276 102.812 112.89 102.794C80.7183 102.802 48.5438 102.792 16.3694 102.799C14.704 102.845 13.026 102.212 11.8519 101.021C10.2923 99.4887 9.67503 97.0699 10.3452 94.9838C10.9424 92.9656 12.6708 91.343 14.7217 90.8719ZM15.4574 94.8603C14.1623 95.2458 13.6685 97.0523 14.5881 98.045C15.3918 99.0251 16.7801 98.7253 17.8887 98.7731C49.4735 98.7555 81.0559 98.7706 112.641 98.7656C113.477 98.8084 114.354 98.3902 114.697 97.5965C115.185 96.6341 114.702 95.3541 113.719 94.9283C112.807 94.5983 111.809 94.7646 110.859 94.7293C80.1211 94.7394 49.3828 94.7318 18.6446 94.7318C17.5838 94.762 16.5004 94.6184 15.4574 94.8603Z" fill="#01518E"/>
<path d="M22.1744 114.896C23.5173 114.886 24.8577 114.886 26.2006 114.896C26.2057 118.924 26.2057 122.953 26.1981 126.982C24.8577 126.989 23.5173 126.989 22.1769 126.982C22.1694 122.951 22.1694 118.922 22.1744 114.896Z" fill="#01518E"/>
<path d="M42.3307 114.896C43.6736 114.886 45.014 114.886 46.3569 114.896C46.3619 118.922 46.3619 122.951 46.3569 126.979C45.014 126.989 43.6736 126.989 42.3332 126.982C42.3256 122.951 42.3256 118.922 42.3307 114.896Z" fill="#01518E"/>
<path d="M62.4869 114.893C63.8298 114.886 65.1702 114.886 66.5131 114.896C66.5182 118.922 66.5182 122.951 66.5131 126.982C65.1702 126.989 63.8298 126.989 62.4869 126.979C62.4819 122.951 62.4819 118.922 62.4869 114.893Z" fill="#01518E"/>
<path d="M82.6432 114.893C83.9861 114.886 85.3265 114.886 86.6694 114.893C86.6744 118.922 86.6744 122.951 86.6669 126.982C85.3265 126.989 83.9861 126.989 82.6432 126.982C82.6381 122.951 82.6381 118.922 82.6432 114.893Z" fill="#01518E"/>
<path d="M102.799 114.896C104.142 114.886 105.483 114.886 106.826 114.896C106.831 118.922 106.831 122.951 106.826 126.979C105.483 126.989 104.142 126.989 102.799 126.979C102.794 122.951 102.794 118.922 102.799 114.896Z" fill="#01518E"/>
<path d="M82.429 6.06952C83.9079 6.02668 85.3869 6.02165 86.8659 6.07456C87.4 11.7032 87.9946 17.3243 88.5413 22.9504C88.6976 24.1522 87.9568 25.1902 87.405 26.188C85.5733 26.2157 83.7416 26.2207 81.9125 26.188C81.3506 25.1928 80.557 24.1623 80.7535 22.9504C81.2977 17.3217 81.8847 11.6981 82.429 6.06952Z" fill="#A8D9FE"/>
<path d="M40.5619 21.6478C39.4936 16.3567 41.7915 10.4711 46.3342 7.49555C46.4098 11.3 46.319 15.1071 46.3694 18.9115C46.3039 19.8614 47.027 20.5543 47.7653 21.0154C49.5919 22.2021 51.3858 23.4391 53.2049 24.6309C53.923 25.1449 54.9207 25.1449 55.6388 24.6309C57.4579 23.4391 59.2543 22.2071 61.0759 21.0204C61.8167 20.5568 62.5348 19.8589 62.4718 18.909C62.5322 15.102 62.4214 11.2925 62.5196 7.48547C66.1906 9.90674 68.4153 14.2655 68.5212 18.6319C68.7101 23.8246 65.7295 28.972 61.1289 31.3883C60.4259 31.7788 59.6272 32.0257 59.015 32.5649C58.4682 33.0486 58.4556 33.8297 58.4456 34.5049C58.4506 39.7959 58.4682 45.087 58.4405 50.378C55.7623 50.4006 53.0815 50.4032 50.4032 50.378C50.3604 44.9181 50.4208 39.4558 50.378 33.9985C50.4511 32.963 49.6146 32.2222 48.7252 31.8846C44.5377 30.0957 41.3883 26.1224 40.5619 21.6478Z" fill="#A8D9FE"/>
<path d="M82.6533 30.247C83.9886 30.2167 85.324 30.2167 86.6593 30.2495C86.682 36.9565 86.682 43.6685 86.6593 50.378C85.324 50.4083 83.9886 50.4083 82.6533 50.378C82.6331 43.6685 82.6306 36.9565 82.6533 30.247Z" fill="#A8D9FE"/>
<path d="M96.0873 70.6527C97.5033 70.0959 99.1284 71.5522 98.7102 73.021C98.4305 74.4295 96.5182 75.0871 95.4549 74.0994C94.2582 73.1823 94.6462 71.0886 96.0873 70.6527Z" fill="#A8D9FE"/>
<path d="M112.212 70.6527C113.628 70.0959 115.253 71.5522 114.835 73.021C114.555 74.432 112.643 75.0871 111.58 74.0994C110.383 73.1823 110.771 71.086 112.212 70.6527Z" fill="#A8D9FE"/>
<path d="M15.4574 94.8603C16.5005 94.6184 17.5839 94.762 18.6446 94.7318C49.3829 94.7318 80.1212 94.7393 110.859 94.7293C111.809 94.7645 112.807 94.5982 113.719 94.9283C114.702 95.3541 115.185 96.634 114.697 97.5965C114.354 98.3901 113.477 98.8084 112.641 98.7655C81.0559 98.7706 49.4736 98.7555 17.8887 98.7731C16.7801 98.7252 15.3919 99.0251 14.5882 98.045C13.6685 97.0523 14.1624 95.2458 15.4574 94.8603Z" fill="#A8D9FE"/>
</svg>
