<svg width="129" height="129" viewBox="0 0 129 129" fill="none" xmlns="http://www.w3.org/2000/svg">
<path d="M6.52553 6.27364C8.05993 4.78208 10.2015 3.9859 12.3331 4.03125C31.0683 4.03377 49.806 4.02874 68.5438 4.03377C71.8494 4.00858 75.1223 6.23584 76.0898 9.43565C75.4851 9.64981 74.8829 9.87153 74.2757 10.0806C73.6559 10.2923 73.0286 10.4813 72.4012 10.6627C71.6302 9.23913 70.2596 8.01463 68.5488 8.07258C49.7254 8.05495 30.8995 8.05999 12.0761 8.07006C9.83368 8.02219 7.90876 10.1033 8.05993 12.3281C8.04229 14.2606 8.08512 23.1956 8.05489 25.128C7.38721 25.1381 6.71954 25.1457 6.05186 25.1457C5.37915 25.1482 4.70643 25.1432 4.03624 25.1331C4.02868 23.1149 4.02364 14.0943 4.03624 12.0761C4.03876 9.90932 4.94831 7.76268 6.52553 6.27364Z" fill="black"/>
<path d="M33.6079 14.2405C34.5628 14.0036 35.5606 14.1296 36.5356 14.1044C49.2139 14.1145 61.8922 14.1069 74.573 14.1094C76.1578 14.1296 77.7451 14.059 79.3298 14.1523C82.5045 14.3891 85.3767 16.7146 86.2913 19.7582C86.7121 21.023 86.6844 22.3685 86.6743 23.6837C86.6642 27.8812 86.6819 32.0787 86.6667 36.2738C85.994 36.2838 85.3238 36.2864 84.6536 36.2838C83.9834 36.2838 83.3132 36.2813 82.643 36.2738C82.6279 31.5648 82.6556 26.8557 82.633 22.1442C82.6682 20.0102 80.7559 18.0979 78.6168 18.1457C64.5075 18.1382 50.3956 18.1382 36.2862 18.1457C36.2534 21.6655 36.324 25.1878 36.2559 28.7076C36.1023 32.6532 32.6555 36.1049 28.7074 36.2561C25.1876 36.3241 21.6653 36.2536 18.1456 36.2864C18.138 60.4739 18.1355 84.6639 18.1456 108.854C18.0977 110.99 20.0125 112.903 22.1466 112.868C32.9025 112.888 43.6583 112.865 54.4142 112.878C54.4218 113.548 54.4243 114.218 54.4243 114.888C54.4268 115.558 54.4243 116.229 54.4142 116.901C43.7465 116.914 33.0788 116.901 22.4111 116.906C20.1587 116.954 17.9037 116.052 16.3542 114.409C14.9886 112.999 14.1798 111.074 14.1219 109.113C14.0841 107.677 14.1168 106.241 14.1093 104.805C14.1068 82.1317 14.1118 59.4585 14.1068 36.7852C14.1345 35.7295 13.9909 34.6461 14.2403 33.6081C14.588 32.7741 15.3514 32.2173 15.9586 31.5774C21.1766 26.3821 26.3794 21.1717 31.5772 15.9588C32.2197 15.3516 32.774 14.5882 33.6079 14.2405ZM21.038 32.245C23.4391 32.2576 25.8402 32.2501 28.2388 32.2526C30.3728 32.2979 32.2978 30.3755 32.2524 28.2415C32.2499 25.8404 32.2575 23.4393 32.2449 21.0382C28.463 24.7267 24.7241 28.4632 21.038 32.245Z" fill="black"/>
<path d="M4.03618 22.1795C4.70638 22.1669 5.37909 22.1644 6.05181 22.1669C6.71948 22.1669 7.38716 22.1745 8.05483 22.182C8.06995 46.954 8.06239 71.7261 8.05987 96.4956C8.09766 97.8637 7.87091 99.3275 8.50583 100.597C8.95179 101.52 9.83362 102.094 10.6625 102.636C10.4811 103.263 10.2922 103.89 10.0805 104.51C9.87141 105.117 9.6497 105.72 9.43554 106.324C6.24077 105.352 4.00595 102.086 4.03366 98.7783C4.03114 73.2453 4.0261 47.7124 4.03618 22.1795Z" fill="black"/>
<path d="M40.315 24.1901C52.4062 24.185 64.5 24.185 76.5912 24.1901C76.5988 25.533 76.5962 26.8734 76.5912 28.2163C64.5 28.2213 52.4062 28.2213 40.315 28.2163C40.3074 26.8734 40.3074 25.533 40.315 24.1901Z" fill="black"/>
<path d="M40.315 32.2526C46.3619 32.2475 52.4062 32.2475 58.4506 32.2526C58.4556 33.5955 58.4581 34.9359 58.4506 36.2788C52.4062 36.2838 46.3594 36.2838 40.315 36.2788C40.3074 34.9359 40.3074 33.5955 40.315 32.2526Z" fill="black"/>
<path d="M25.9637 42.0863C27.1328 40.8895 28.8183 40.2647 30.4812 40.31C43.8347 40.3176 57.1883 40.3075 70.5443 40.3151C70.5493 41.658 70.5519 42.9984 70.5443 44.3413C60.4662 44.3489 50.3906 44.3388 40.315 44.3463C40.3099 46.3594 40.3099 48.3751 40.315 50.3882C49.0477 50.3957 57.7803 50.3856 66.513 50.3932C66.5206 51.7361 66.5206 53.0765 66.513 54.4194C57.7803 54.427 49.0477 54.4169 40.315 54.4245C40.3099 56.4376 40.3099 58.4532 40.315 60.4663C46.3593 60.4739 52.4037 60.4638 58.4506 60.4713C58.4581 61.8142 58.4581 63.1546 58.4506 64.4975C52.4062 64.5076 46.3593 64.495 40.315 64.5026C40.3099 66.5157 40.3099 68.5313 40.315 70.5444C46.3593 70.552 52.4037 70.5394 58.4506 70.5495C58.4581 71.8924 58.4581 73.2328 58.4506 74.5757C52.4037 74.5857 46.3593 74.5732 40.315 74.5807C40.3099 76.5938 40.3099 78.6094 40.315 80.6225C46.3593 80.6301 52.4062 80.6175 58.4506 80.6276C58.4556 81.9705 58.4581 83.3109 58.4506 84.6538C52.4037 84.6614 46.3593 84.6513 40.315 84.6588C40.3099 86.6719 40.3099 88.6876 40.315 90.7007C46.3593 90.7082 52.4037 90.6956 58.4506 90.7057C58.4581 92.0486 58.4581 93.389 58.4506 94.7319C52.4037 94.7395 46.3593 94.7294 40.315 94.737C40.3099 96.7501 40.3099 98.7632 40.315 100.779C43.6735 100.789 47.0295 100.774 50.388 100.784C50.3956 102.127 50.3956 103.467 50.388 104.81C43.5778 104.805 36.7675 104.83 29.9597 104.797C26.833 104.734 24.127 101.903 24.19 98.7783C24.1824 81.3885 24.1925 63.9962 24.1849 46.6064C24.1396 44.9409 24.7644 43.2554 25.9637 42.0863ZM28.2514 46.105C28.1658 47.531 28.2388 48.9596 28.2212 50.3882C30.907 50.3932 33.5929 50.3932 36.2787 50.3882C36.2837 48.3751 36.2837 46.3594 36.2787 44.3463C34.258 44.3514 32.2348 44.3211 30.2142 44.3564C29.2416 44.3363 28.327 45.1274 28.2514 46.105ZM28.2212 54.4245C28.2162 56.4376 28.2162 58.4532 28.2212 60.4663C30.907 60.4713 33.5929 60.4713 36.2787 60.4663C36.2837 58.4532 36.2837 56.4376 36.2787 54.4245C33.5929 54.4194 30.907 54.4194 28.2212 54.4245ZM28.2212 64.5026C28.2162 66.5157 28.2162 68.5313 28.2212 70.5444C30.907 70.5495 33.5929 70.5495 36.2787 70.5444C36.2837 68.5288 36.2837 66.5157 36.2787 64.5026C33.5929 64.4975 30.907 64.4975 28.2212 64.5026ZM28.2212 74.5807C28.2162 76.5938 28.2162 78.6094 28.2212 80.6225C30.907 80.6276 33.5929 80.6276 36.2787 80.6225C36.2837 78.6094 36.2837 76.5938 36.2787 74.5807C33.5929 74.5757 30.907 74.5757 28.2212 74.5807ZM28.2212 84.6588C28.2162 86.6719 28.2162 88.6876 28.2212 90.7007C30.907 90.7057 33.5929 90.7057 36.2787 90.7007C36.2837 88.685 36.2837 86.6719 36.2787 84.6588C33.5929 84.6538 30.907 84.6538 28.2212 84.6588ZM28.2212 94.737C28.2388 96.1655 28.1658 97.5941 28.2514 99.0202C28.3296 99.9952 29.2441 100.784 30.2142 100.769C32.2348 100.804 34.258 100.771 36.2787 100.779C36.2837 98.7657 36.2837 96.7501 36.2787 94.737C33.5929 94.7319 30.907 94.7319 28.2212 94.737Z" fill="black"/>
<path d="M74.7645 41.4917C75.1022 40.6905 75.9815 40.2722 76.823 40.3151C79.4332 40.2974 82.0409 40.3226 84.6512 40.3125C89.9498 40.3151 95.2508 40.3075 100.549 40.3151C101.388 40.2672 102.26 40.6905 102.605 41.4841C102.915 42.0787 102.757 42.764 102.568 43.3687C101.552 46.4476 100.481 49.5063 99.5089 52.5978C103.167 53.21 106.654 54.8855 109.32 57.4781C112.784 60.7837 114.825 65.5078 114.888 70.2924C114.893 76.8432 114.891 83.3965 114.888 89.9473C114.916 91.1164 114.765 92.3283 115.135 93.4595C115.427 94.4119 116.145 95.13 116.78 95.8632C117.521 96.7072 118.007 97.7301 118.461 98.7455C120.043 98.8161 121.628 98.6951 123.208 98.8009C124.296 98.8765 125.059 99.9624 124.966 101.013C124.974 108.164 124.961 115.314 124.974 122.464C124.981 123.14 124.903 123.89 124.374 124.374C123.89 124.903 123.137 124.981 122.464 124.974C116.584 124.959 105.701 124.979 99.82 124.964C99.8074 124.291 99.8074 123.621 99.8099 122.951C99.8099 122.278 99.8125 121.608 99.8175 120.94C102.501 120.932 110.187 120.943 112.872 120.935C112.872 114.573 112.885 108.209 112.865 101.847C111.781 101.134 110.723 100.358 109.529 99.8339C105.309 97.9443 99.98 98.7027 96.5585 101.855C96.0017 102.386 95.3189 102.865 94.5051 102.797C89.1208 102.797 83.7316 102.804 78.3473 102.789C77.3269 102.747 76.2107 102.918 75.4801 103.699C74.3664 104.762 74.2808 106.695 75.3491 107.821C75.9638 108.529 76.9061 108.859 77.8283 108.844C82.7918 108.849 87.7527 108.839 92.7162 108.846C92.7212 110.187 92.7212 111.53 92.7162 112.873C87.6721 112.875 82.6255 112.878 77.5839 112.873C75.4473 112.878 73.3133 111.852 72.0434 110.124C71.6227 109.547 71.207 108.952 70.6401 108.509C68.7051 106.916 66.7852 105.304 64.8628 103.699C63.1848 102.195 59.995 102.406 58.8915 104.505C58.0878 105.966 58.4808 107.962 59.8489 108.945C64.1926 112.333 68.5539 115.699 72.8976 119.088C73.6207 119.645 74.3135 120.27 75.1601 120.635C76.0898 121.023 77.1228 120.927 78.1054 120.943C85.664 120.932 93.2201 120.938 100.776 120.94C100.781 121.608 100.784 122.278 100.784 122.951C100.784 123.621 100.784 124.291 100.774 124.964C93.3007 124.976 85.8303 124.961 78.3574 124.971C76.1654 125.085 73.8323 124.845 72.0208 123.492C68.2818 120.635 64.5932 117.71 60.8542 114.848C59.5869 113.812 58.254 112.86 57.0018 111.812C55.4095 110.461 54.4571 108.413 54.4244 106.332C54.3236 103.86 55.5758 101.351 57.6746 100.023C58.1785 99.6828 58.8008 99.3955 58.9545 98.7505C59.4206 97.4102 60.1916 96.2058 61.1767 95.1904C62.1417 94.2103 62.5624 92.8271 62.4919 91.4691C62.4768 84.4925 62.4869 77.5134 62.4843 70.5368C62.4843 65.6691 64.5378 60.8442 68.0626 57.4831C70.7283 54.8855 74.2178 53.2201 77.8762 52.5952C76.8961 49.5668 75.8706 46.5534 74.8578 43.535C74.6512 42.8825 74.4345 42.1442 74.7645 41.4917ZM79.3954 44.3614C80.2798 47.0246 81.207 49.6751 82.0384 52.3559C86.4678 52.429 90.9072 52.429 95.3365 52.3559C96.168 49.6751 97.0951 47.0246 97.9795 44.3614C91.784 44.3438 85.591 44.3438 79.3954 44.3614ZM75.1828 57.5436C70.121 59.5945 66.566 64.8125 66.5282 70.2773C66.498 77.5084 66.5282 84.7394 66.5131 91.9705C66.503 93.4318 66.1427 94.8931 65.4246 96.168C64.9132 97.1456 64.0968 97.9065 63.4569 98.7934C66.5534 99.1889 68.5791 101.729 70.9248 103.495C71.852 100.907 74.3261 98.9319 77.0976 98.7909C82.7036 98.7002 88.3171 98.8463 93.9205 98.7203C95.3819 97.6092 96.8885 96.5132 98.6321 95.8732C102.951 94.1247 107.977 94.4321 112.109 96.556C111.386 95.1325 110.824 93.5905 110.859 91.9705C110.857 84.9108 110.862 77.8536 110.859 70.7938C110.869 68.7203 110.461 66.6391 109.602 64.7495C107.498 59.9447 102.517 56.5887 97.2715 56.4577C91.8898 56.4098 86.5106 56.4527 81.1289 56.435C79.0981 56.4048 77.0548 56.7449 75.1828 57.5436ZM116.911 102.802C116.901 108.846 116.904 114.888 116.911 120.932C118.252 120.945 119.592 120.945 120.932 120.932C120.94 114.888 120.94 108.846 120.932 102.802C119.592 102.789 118.252 102.789 116.911 102.802Z" fill="black"/>
<path d="M107.922 52.57C108.536 51.3808 109.098 50.1614 109.834 49.0402C114.891 51.7134 118.685 56.44 120.761 61.7184C119.534 62.2551 118.297 62.7691 117.03 63.2024C115.266 58.7958 112.147 54.8351 107.922 52.57Z" fill="black"/>
<path d="M71.9099 65.4901C72.7943 63.9835 74.0616 62.7111 75.5708 61.8318C76.2687 62.9656 76.9213 64.122 77.5789 65.2785C76.7147 65.8857 75.9664 66.6391 75.3566 67.5007C74.2027 66.8381 73.0437 66.1855 71.9099 65.4901Z" fill="black"/>
<path d="M86.6744 66.5182C88.0173 66.5131 89.3577 66.5131 90.6981 66.5182C90.7006 67.1783 90.7031 67.8384 90.7006 68.4985C92.3156 68.4759 93.9886 68.9621 95.1249 70.1564C96.3091 71.2927 96.818 72.9581 96.7701 74.5706C95.4423 74.5857 94.112 74.5756 92.7842 74.5782C92.7313 73.8072 92.5273 72.8321 91.6429 72.6306C90.2471 72.4643 88.8311 72.6104 87.4277 72.5575C86.6013 72.5928 85.5481 72.366 84.9787 73.1395C84.301 73.9206 84.752 75.2408 85.7422 75.4928C88.1911 76.3393 90.6678 77.1078 93.1143 77.9694C94.9359 78.6069 96.3292 80.2773 96.6618 82.1771C97.08 84.3464 96.0319 86.6971 94.1473 87.8435C93.1294 88.5187 91.8948 88.6976 90.7006 88.7203C90.7031 89.3804 90.7006 90.0405 90.7006 90.7006C89.3577 90.7057 88.0173 90.7057 86.6769 90.7006C86.6719 90.0405 86.6693 89.3804 86.6744 88.7203C85.0594 88.7379 83.3864 88.2567 82.2476 87.0624C81.0684 85.9236 80.5494 84.2607 80.6048 82.6482C81.9326 82.6331 83.2604 82.6432 84.5907 82.6381C84.6084 83.4822 84.9409 84.5479 85.9362 84.6235C87.6923 84.6966 89.4559 84.6563 91.2146 84.6462C92.1796 84.6916 92.9732 83.6359 92.6532 82.7238C92.5046 82.1594 91.983 81.8193 91.4564 81.658C89.5643 81.0181 87.6671 80.3983 85.7749 79.7659C84.7444 79.4232 83.661 79.131 82.7943 78.4507C81.2397 77.2715 80.3831 75.2332 80.6804 73.2982C80.9273 71.3809 82.2677 69.6575 84.0641 68.942C84.888 68.5867 85.7925 68.5388 86.6744 68.4985C86.6693 67.8384 86.6719 67.1783 86.6744 66.5182Z" fill="black"/>
<path d="M70.5493 70.5494C71.8922 70.5444 73.2326 70.5444 74.5755 70.5494C74.5806 73.908 74.5806 77.264 74.5755 80.6225C73.2326 80.6276 71.8922 80.6276 70.5493 80.6225C70.5443 77.264 70.5443 73.908 70.5493 70.5494Z" fill="black"/>
<path d="M8.05993 12.3281C7.90875 10.1033 9.83367 8.0222 12.0761 8.07007C30.8995 8.05999 49.7254 8.05495 68.5488 8.07259C70.2596 8.01464 71.6302 9.23913 72.4012 10.6627C73.0286 10.4813 73.6559 10.2923 74.2757 10.0807C74.6461 11.3933 74.5932 12.7614 74.573 14.1094C61.8922 14.1069 49.2139 14.1144 36.5357 14.1043C35.5606 14.1295 34.5629 14.0036 33.608 14.2404C32.774 14.5881 32.2197 15.3515 31.5772 15.9587C26.3794 21.1716 21.1766 26.382 15.9587 31.5773C15.3515 32.2173 14.588 32.7741 14.2403 33.608C13.9909 34.6461 14.1345 35.7295 14.1068 36.7852C14.1118 59.4584 14.1068 82.1317 14.1093 104.805C12.7614 104.83 11.3933 104.878 10.0806 104.51C10.2922 103.89 10.4812 103.263 10.6626 102.636C9.83367 102.094 8.95184 101.519 8.50588 100.597C7.87096 99.3275 8.09772 97.8636 8.05993 96.4955C8.06244 71.726 8.07 46.954 8.05489 22.182C7.38721 22.1744 8.66768 22.1668 8.00001 22.1668C7.99245 20.8265 7.99244 19.4684 8 18.128C8.66768 18.128 7.38721 18.1381 8.05489 18.128C8.08512 16.1956 8.04229 14.2606 8.05993 12.3281Z" fill="#C7C7C7"/>
<path d="M116.911 102.802C118.252 102.789 119.592 102.789 120.932 102.802C120.94 108.846 120.94 114.888 120.932 120.932C119.592 120.945 118.252 120.945 116.911 120.932C116.904 114.888 116.901 108.846 116.911 102.802Z" fill="#F3F3F3"/>
<path d="M36.2863 18.1457C50.3957 18.1381 64.5076 18.1381 78.617 18.1457C80.756 18.0978 82.6684 20.0101 82.6331 22.1442C82.6558 26.8557 82.6281 31.5647 82.6432 36.2737C83.3134 36.2813 83.9836 36.2838 84.6537 36.2838C84.6588 37.6267 84.6588 38.9696 84.6512 40.3125C82.041 40.3226 79.4333 40.2974 76.8231 40.315C75.9815 40.2722 75.1022 40.6904 74.7646 41.4917C74.4345 42.1442 74.6512 42.8824 74.8578 43.535C75.8707 46.5534 76.8961 49.5668 77.8762 52.5952C74.2179 53.2201 70.7283 54.8855 68.0626 57.4831C64.5378 60.8442 62.4844 65.6691 62.4844 70.5368C62.4869 77.5134 62.4768 84.4925 62.492 91.4691C62.5625 92.8271 62.1417 94.2103 61.1768 95.1904C60.1916 96.2058 59.4207 97.4101 58.9545 98.7505C58.8008 99.3955 58.1785 99.6828 57.6746 100.023C55.5758 101.351 54.3236 103.86 54.4244 106.332C54.4572 108.413 55.4096 110.461 57.0019 111.812C58.2541 112.86 59.5869 113.812 60.8543 114.848C58.7127 114.939 56.5685 114.87 54.4244 114.888C54.4244 114.218 54.4219 113.548 54.4143 112.878C43.6585 112.865 32.9026 112.888 22.1467 112.867C20.0127 112.903 18.0978 110.99 18.1457 108.854C18.1356 84.6638 18.1381 60.4738 18.1457 36.2863C21.6655 36.2536 25.1878 36.3241 28.7076 36.2561C32.6557 36.1049 36.1024 32.6531 36.2561 28.7076C36.3241 25.1878 36.2536 21.6655 36.2863 18.1457ZM40.315 24.19C40.3075 25.533 40.3075 26.8733 40.315 28.2163C52.4063 28.2213 64.5 28.2213 76.5913 28.2163C76.5963 26.8733 76.5988 25.533 76.5913 24.19C64.5 24.185 52.4063 24.185 40.315 24.19ZM40.315 32.2525C40.3075 33.5954 40.3075 34.9358 40.315 36.2788C46.3594 36.2838 52.4063 36.2838 58.4506 36.2788C58.4582 34.9358 58.4557 33.5954 58.4506 32.2525C52.4063 32.2475 46.3619 32.2475 40.315 32.2525ZM25.9638 42.0863C24.7645 43.2553 24.1397 44.9409 24.185 46.6063C24.1926 63.9961 24.1825 81.3884 24.19 98.7782C24.1271 101.902 26.833 104.734 29.9598 104.797C36.7675 104.83 43.5778 104.805 50.3881 104.81C50.3957 103.467 50.3957 102.127 50.3881 100.784C47.0296 100.774 43.6736 100.789 40.315 100.779C40.31 98.7631 40.31 96.75 40.315 94.7369C46.3594 94.7294 52.4038 94.7394 58.4506 94.7319C58.4582 93.389 58.4582 92.0486 58.4506 90.7057C52.4038 90.6956 46.3594 90.7082 40.315 90.7006C40.31 88.6875 40.31 86.6719 40.315 84.6588C46.3594 84.6512 52.4038 84.6613 58.4506 84.6537C58.4582 83.3108 58.4557 81.9705 58.4506 80.6275C52.4063 80.6175 46.3594 80.6301 40.315 80.6225C40.31 78.6094 40.31 76.5938 40.315 74.5807C46.3594 74.5731 52.4038 74.5857 58.4506 74.5756C58.4582 73.2327 58.4582 71.8923 58.4506 70.5494C52.4038 70.5393 46.3594 70.5519 40.315 70.5444C40.31 68.5313 40.31 66.5156 40.315 64.5025C46.3594 64.495 52.4063 64.5076 58.4506 64.4975C58.4582 63.1546 58.4582 61.8142 58.4506 60.4713C52.4038 60.4637 46.3594 60.4738 40.315 60.4663C40.31 58.4531 40.31 56.4375 40.315 54.4244C49.0477 54.4169 57.7804 54.4269 66.5131 54.4194C66.5207 53.0765 66.5207 51.7361 66.5131 50.3932C57.7804 50.3856 49.0477 50.3957 40.315 50.3881C40.31 48.375 40.31 46.3594 40.315 44.3463C50.3906 44.3387 60.4663 44.3488 70.5444 44.3413C70.5519 42.9983 70.5494 41.6579 70.5444 40.315C57.1883 40.3075 43.8348 40.3176 30.4813 40.31C28.8184 40.2647 27.1329 40.8895 25.9638 42.0863Z" fill="#DDDDDD"/>
<path d="M21.0381 32.245C24.7242 28.4631 28.4631 24.7267 32.245 21.0381C32.2576 23.4392 32.25 25.8403 32.2525 28.2414C32.2979 30.3755 30.3729 32.2979 28.2389 32.2525C25.8403 32.25 23.4392 32.2576 21.0381 32.245Z" fill="#C1C1C1"/>
<path d="M28.2516 46.1049C28.3272 45.1273 29.2418 44.3362 30.2143 44.3564C32.235 44.3211 34.2581 44.3513 36.2788 44.3463C36.2838 46.3594 36.2838 48.375 36.2788 50.3881C33.593 50.3932 30.9072 50.3932 28.2213 50.3881C28.239 48.9595 28.1659 47.531 28.2516 46.1049Z" fill="#C1C1C1"/>
<path d="M28.2213 54.4244C30.9071 54.4194 33.593 54.4194 36.2788 54.4244C36.2838 56.4375 36.2838 58.4532 36.2788 60.4663C33.593 60.4713 30.9071 60.4713 28.2213 60.4663C28.2163 58.4532 28.2163 56.4375 28.2213 54.4244Z" fill="#C1C1C1"/>
<path d="M28.2213 64.5026C30.9071 64.4975 33.593 64.4975 36.2788 64.5026C36.2838 66.5157 36.2838 68.5288 36.2788 70.5444C33.593 70.5494 30.9071 70.5494 28.2213 70.5444C28.2163 68.5313 28.2163 66.5157 28.2213 64.5026Z" fill="#C1C1C1"/>
<path d="M28.2213 74.5807C30.9071 74.5756 33.593 74.5756 36.2788 74.5807C36.2838 76.5938 36.2838 78.6094 36.2788 80.6225C33.593 80.6276 30.9071 80.6276 28.2213 80.6225C28.2163 78.6094 28.2163 76.5938 28.2213 74.5807Z" fill="#C1C1C1"/>
<path d="M28.2213 84.6588C30.9071 84.6538 33.593 84.6538 36.2788 84.6588C36.2838 86.6719 36.2838 88.685 36.2788 90.7006C33.593 90.7057 30.9071 90.7057 28.2213 90.7006C28.2163 88.6875 28.2163 86.6719 28.2213 84.6588Z" fill="#C1C1C1"/>
<path d="M28.2213 94.7369C30.9072 94.7319 33.593 94.7319 36.2788 94.7369C36.2838 96.75 36.2838 98.7657 36.2788 100.779C34.2581 100.771 32.235 100.804 30.2143 100.769C29.2443 100.784 28.3297 99.9952 28.2516 99.0201C28.1659 97.5941 28.239 96.1655 28.2213 94.7369Z" fill="#C1C1C1"/>
<path d="M79.3955 44.3614C85.591 44.3437 91.784 44.3437 97.9796 44.3614C97.0952 47.0245 96.168 49.6751 95.3366 52.3558C90.9073 52.4289 86.4678 52.4289 82.0385 52.3558C81.207 49.6751 80.2799 47.0245 79.3955 44.3614Z" fill="#F3F3F3"/>
<path d="M75.1828 57.5435C77.0548 56.7449 79.0982 56.4047 81.1289 56.435C86.5106 56.4526 91.8898 56.4098 97.2715 56.4576C102.517 56.5886 107.498 59.9447 109.602 64.7494C110.461 66.639 110.869 68.7202 110.859 70.7938C110.862 77.8535 110.857 84.9107 110.859 91.9704C110.824 93.5905 111.386 95.1324 112.109 96.556C107.977 94.432 102.951 94.1246 98.6321 95.8732C96.8886 96.5131 95.3819 97.6091 93.9206 98.7202C88.3171 98.8462 82.7036 98.7001 77.0977 98.7908C74.3262 98.9319 71.852 100.907 70.9248 103.495C68.5791 101.729 66.5534 99.1889 63.4569 98.7933C64.0969 97.9064 64.9132 97.1455 65.4247 96.168C66.1427 94.8931 66.503 93.4317 66.5131 91.9704C66.5282 84.7394 66.498 77.5083 66.5282 70.2773C66.566 64.8124 70.1211 59.5944 75.1828 57.5435ZM71.9099 65.4901C73.0437 66.1855 74.2027 66.8381 75.3567 67.5007C75.9664 66.6391 76.7147 65.8857 77.5789 65.2785C76.9213 64.122 76.2687 62.9656 75.5708 61.8318C74.0616 62.7111 72.7943 63.9835 71.9099 65.4901ZM86.6744 66.5181C86.6719 67.1782 86.6694 67.8383 86.6744 68.4985C85.7926 68.5388 84.888 68.5866 84.0642 68.9419C82.2677 69.6575 80.9273 71.3808 80.6804 73.2982C80.3831 75.2332 81.2398 77.2715 82.7943 78.4506C83.661 79.1309 84.7444 79.4232 85.7749 79.7658C87.6671 80.3982 89.5643 81.018 91.4565 81.658C91.983 81.8192 92.5046 82.1594 92.6532 82.7237C92.9732 83.6358 92.1796 84.6915 91.2146 84.6461C89.456 84.6562 87.6923 84.6965 85.9362 84.6235C84.941 84.5479 84.6084 83.4821 84.5907 82.6381C83.2604 82.6431 81.9326 82.633 80.6048 82.6482C80.5494 84.2607 81.0684 85.9235 82.2476 87.0624C83.3864 88.2566 85.0594 88.7379 86.6744 88.7202C86.6694 89.3803 86.6719 90.0405 86.6769 90.7006C88.0173 90.7056 89.3577 90.7056 90.7006 90.7006C90.7006 90.0405 90.7031 89.3803 90.7006 88.7202C91.8949 88.6975 93.1294 88.5187 94.1473 87.8434C96.0319 86.697 97.0801 84.3463 96.6618 82.177C96.3292 80.2773 94.9359 78.6068 93.1143 77.9694C90.6679 77.1077 88.1911 76.3392 85.7422 75.4927C84.752 75.2407 84.301 73.9205 84.9787 73.1394C85.5482 72.3659 86.6013 72.5927 87.4277 72.5574C88.8311 72.6103 90.2471 72.4642 91.6429 72.6305C92.5273 72.8321 92.7313 73.8071 92.7843 74.5781C94.1121 74.5756 95.4424 74.5857 96.7702 74.5705C96.818 72.958 96.3091 71.2926 95.1249 70.1563C93.9886 68.9621 92.3156 68.4758 90.7006 68.4985C90.7031 67.8383 90.7006 67.1782 90.6981 66.5181C89.3577 66.5131 88.0173 66.5131 86.6744 66.5181ZM70.5494 70.5494C70.5444 73.9079 70.5444 77.2639 70.5494 80.6224C71.8923 80.6275 73.2327 80.6275 74.5756 80.6224C74.5806 77.2639 74.5806 73.9079 74.5756 70.5494C73.2327 70.5443 71.8923 70.5443 70.5494 70.5494Z" fill="#F3F3F3"/>
<path d="M96.5585 101.855C99.9801 98.7026 105.309 97.9442 109.529 99.8339C110.723 100.358 111.782 101.134 112.865 101.847C112.885 108.209 112.873 114.573 112.873 120.935C110.187 120.943 107.501 120.932 104.818 120.94C104.818 120.94 102.119 120.943 100.776 120.94C100.776 120.267 100.781 121.608 100.776 120.94C93.2202 120.937 85.6641 120.932 78.1055 120.943C77.1229 120.927 76.0899 121.023 75.1602 120.635C74.3136 120.27 73.6207 119.645 72.8976 119.088C68.5539 115.699 64.1926 112.333 59.849 108.945C58.4809 107.962 58.0878 105.966 58.8915 104.505C59.9951 102.406 63.1848 102.195 64.8628 103.699C66.7852 105.304 68.7051 106.916 70.6401 108.509C71.207 108.952 71.6227 109.547 72.0435 110.124C73.3133 111.852 75.4474 112.877 77.5839 112.872C82.6255 112.877 87.6721 112.875 92.7163 112.872C92.7213 111.53 92.7213 110.187 92.7163 108.846C87.7528 108.839 82.7918 108.849 77.8283 108.844C76.9062 108.859 75.9639 108.529 75.3491 107.821C74.2808 106.695 74.3665 104.762 75.4801 103.699C76.2108 102.918 77.327 102.746 78.3474 102.789C83.7316 102.804 89.1209 102.797 94.5051 102.797C95.3189 102.865 96.0017 102.386 96.5585 101.855Z" fill="#DDDDDD"/>
</svg>
