<svg width="119" height="129" viewBox="0 0 119 129" fill="none" xmlns="http://www.w3.org/2000/svg">
<path d="M0.0881662 6.02927C0.0528928 4.85769 1.17912 3.91286 2.32299 4.03128C33.0764 4.03128 63.8298 4.03128 94.5832 4.03128C95.7271 3.91286 96.8482 4.85769 96.818 6.02927C96.8356 8.72769 96.8356 11.4286 96.818 14.127C96.8306 15.1021 96.0369 16.0091 95.0619 16.0948C93.6358 16.1729 92.2073 16.1024 90.7812 16.125C90.7863 31.0356 90.7686 45.9462 90.7888 60.8568C95.2231 61.6681 99.3829 63.8827 102.535 67.1077C106.279 70.8845 108.577 76.047 108.879 81.3557C109.174 84.9133 107.906 88.3524 106.496 91.5522C103.187 98.7405 98.5363 105.198 93.7769 111.482C96.2864 112.021 98.879 112.701 100.937 114.309C102.182 115.261 103.069 116.816 102.84 118.418C102.656 119.993 101.472 121.222 100.189 122.036C97.5159 123.686 94.3665 124.324 91.2902 124.704C86.3796 125.238 81.3179 125.004 76.5811 123.53C74.5731 122.845 72.4642 121.892 71.2498 120.066C70.1891 118.468 70.5519 116.223 71.9049 114.911C73.9835 112.837 76.949 112.112 79.7179 111.474C78.6119 110.015 77.5159 108.546 76.43 107.07C76.2234 106.725 75.7598 106.863 75.4322 106.821C51.406 106.841 27.3797 106.818 3.35348 106.833C2.54723 106.803 1.63768 106.962 0.937248 106.458C0.325002 106.05 0.0428144 105.301 0.0780879 104.583C0.0831269 102.638 0.0604514 100.693 0.0881662 98.7505C0.06801 97.773 0.866701 96.8609 1.84428 96.7777C3.27033 96.7022 4.69891 96.7702 6.12496 96.75C6.12496 69.8742 6.12496 43.0009 6.12496 16.125C4.77449 16.1124 3.42654 16.1502 2.07608 16.115C1.01283 16.1376 0.0629709 15.1928 0.0881662 14.127C0.0705295 11.4286 0.0705295 8.72769 0.0881662 6.02927ZM4.12446 8.07261C4.08918 9.41048 4.08918 10.7458 4.12446 12.0837C33.676 12.1013 63.2301 12.1013 92.7817 12.0837C92.817 10.7458 92.817 9.41048 92.7817 8.07261C63.2301 8.05497 33.676 8.05497 4.12446 8.07261ZM10.1562 16.125C10.1562 43.0009 10.1562 69.8742 10.1562 96.75C18.8914 96.75 27.6241 96.75 36.3593 96.75C36.3619 93.389 36.3543 90.0254 36.3619 86.6644C36.3719 84.3993 37.0119 82.1342 38.2313 80.2244C40.0101 77.3723 43.0361 75.3441 46.3468 74.7696C49.5743 74.1851 53.021 74.9964 55.6489 76.9616C58.6169 79.1335 60.4763 82.7263 60.5342 86.4048C60.562 89.8541 60.5393 93.3033 60.5468 96.75C63.5879 96.75 66.629 96.75 69.6701 96.75C67.4554 92.7213 65.2634 88.5187 64.6486 83.9029C64.0742 76.3796 67.861 68.8235 74.0037 64.5076C70.8618 64.49 67.7199 64.5051 64.5781 64.5C64.5781 63.1571 64.5781 61.8142 64.5781 60.4688C65.2483 60.4663 65.921 60.4688 66.5937 60.4688C66.6013 55.7598 66.5786 51.0508 66.6038 46.3418C66.5761 45.276 67.5259 44.3287 68.5942 44.3539C72.6356 44.3362 76.6794 44.3362 80.7207 44.3539C81.7865 44.3287 82.7288 45.2785 82.7086 46.3418C82.7363 51.1742 82.7086 56.0067 82.7212 60.8417C84.0541 60.6225 85.3995 60.4814 86.75 60.4537C86.75 45.6766 86.75 30.8996 86.75 16.125C61.2196 16.125 35.6866 16.125 10.1562 16.125ZM70.6376 48.3851C70.6149 52.4088 70.6149 56.4325 70.6376 60.4587C73.3158 60.4789 75.9966 60.4814 78.6749 60.4562C78.6975 56.4325 78.695 52.4113 78.6774 48.3876C75.9966 48.3624 73.3158 48.365 70.6376 48.3851ZM79.4534 66.0319C73.3083 68.6648 68.9419 74.9284 68.6345 81.6102C68.4103 84.4598 69.4559 87.1985 70.5897 89.7558C72.9379 94.8755 76.0596 99.5946 79.3199 104.173C81.7008 107.425 84.0969 110.683 86.75 113.719C88.6447 111.615 90.3101 109.315 92.046 107.08C95.2408 102.807 98.2919 98.4104 100.892 93.7442C102.558 90.615 104.258 87.39 104.802 83.8475C105.498 76.5484 101.041 69.1864 94.3892 66.1881C89.7406 63.9911 84.1448 63.9357 79.4534 66.0319ZM42.0535 81.7765C40.9222 83.2302 40.3578 85.077 40.3881 86.9113C40.3981 90.1867 40.3729 93.462 40.4007 96.7374C45.7698 96.7601 51.1364 96.7576 56.503 96.74C56.5231 93.2932 56.5307 89.849 56.5005 86.4023C56.4526 82.7616 53.6131 79.4308 50.0404 78.7681C47.0875 78.1332 43.8625 79.3678 42.0535 81.7765ZM4.10682 100.794C4.10934 101.457 4.10934 102.119 4.10682 102.784C27.2134 102.802 50.3175 102.815 73.4242 102.779C73.0135 102.099 72.57 101.441 72.1064 100.796C49.4407 100.769 26.7725 100.776 4.10682 100.794ZM77.148 116.392C76.1931 116.76 75.1929 117.181 74.5756 118.04C76.493 119.554 78.952 120.109 81.3053 120.524C85.591 121.164 90.0153 121.101 94.2405 120.109C95.9059 119.65 97.6747 119.149 98.9369 117.901C96.7424 115.949 93.6484 115.584 90.8543 115.155C89.9598 116.211 89.1183 117.314 88.1634 118.317C87.4328 119.108 86.0672 119.111 85.3365 118.317C84.3766 117.314 83.5426 116.198 82.6305 115.153C80.7711 115.392 78.9067 115.72 77.148 116.392Z" fill="#2B6A96"/>
<path d="M14.1976 22.1542C14.1724 21.0885 15.1197 20.1411 16.1855 20.1663C20.2268 20.1487 24.2732 20.1487 28.3145 20.1663C29.3803 20.1411 30.3226 21.091 30.3024 22.1542C30.3276 26.8607 30.3049 31.5722 30.31 36.2787C30.9827 36.2812 31.6554 36.2787 32.3281 36.2812C32.3281 37.6267 32.3281 38.9696 32.3281 40.3125C25.6085 40.3125 18.8915 40.3125 12.1719 40.3125C12.1719 38.9696 12.1719 37.6267 12.1719 36.2812C12.8421 36.2787 13.5148 36.2812 14.1875 36.2787C14.1951 31.5722 14.1724 26.8632 14.1976 22.1542ZM18.2313 24.2001C18.2087 28.2238 18.2087 32.2475 18.2313 36.2686C20.9096 36.2938 23.5904 36.2913 26.2687 36.2686C26.2913 32.2449 26.2913 28.2212 26.2687 24.1976C23.5904 24.1774 20.9096 24.1749 18.2313 24.2001Z" fill="#2B6A96"/>
<path d="M40.4007 22.1542C40.3755 21.0885 41.3228 20.1411 42.3886 20.1663C46.4299 20.1487 50.4738 20.1487 54.5176 20.1663C55.6892 20.1335 56.6315 21.2598 56.5156 22.4011C56.5156 27.027 56.5156 31.6528 56.5131 36.2787C57.1858 36.2812 57.8585 36.2787 58.5312 36.2812C58.5287 37.6267 58.5312 38.9696 58.5312 40.3125C51.8117 40.3125 45.0946 40.3125 38.375 40.3125C38.375 38.9696 38.375 37.6267 38.375 36.2812C39.0452 36.2787 39.7179 36.2812 40.3906 36.2787C40.3982 31.5722 40.3755 26.8632 40.4007 22.1542ZM44.4345 24.1976C44.4118 28.2212 44.4118 32.2449 44.4345 36.2686C47.1127 36.2938 49.7935 36.2913 52.4718 36.2686C52.4945 32.2475 52.4945 28.2212 52.4718 24.2001C49.7935 24.1749 47.1127 24.1774 44.4345 24.1976Z" fill="#2B6A96"/>
<path d="M66.6038 22.1542C66.5786 21.0885 67.526 20.1411 68.5917 20.1663C72.6331 20.1487 76.6769 20.1487 80.7208 20.1663C81.8923 20.1335 82.8346 21.2573 82.7188 22.4011C82.7188 27.027 82.7187 31.6528 82.7162 36.2787C83.3889 36.2812 84.0617 36.2787 84.7344 36.2812C84.7319 37.6267 84.7344 38.9696 84.7344 40.3125C78.0148 40.3125 71.2977 40.3125 64.5781 40.3125C64.5781 38.9696 64.5781 37.6267 64.5781 36.2812C65.2483 36.2787 65.921 36.2812 66.5938 36.2787C66.6013 31.5722 66.5786 26.8632 66.6038 22.1542ZM70.6376 24.2001C70.6149 28.2238 70.6149 32.2475 70.6376 36.2686C73.3159 36.2913 75.9966 36.2938 78.6749 36.2686C78.6976 32.2449 78.6976 28.2212 78.6774 24.2001C75.9966 24.1774 73.3159 24.1749 70.6376 24.2001Z" fill="#2B6A96"/>
<path d="M14.1976 46.3442C14.1699 45.276 15.1197 44.3286 16.1855 44.3538C20.2293 44.3362 24.2732 44.3362 28.3145 44.3538C29.3803 44.3286 30.3226 45.2785 30.3024 46.3417C30.3276 51.0507 30.3049 55.7597 30.31 60.4662C30.9827 60.4687 31.6554 60.4662 32.3281 60.4687C32.3281 61.8142 32.3281 63.1571 32.3281 64.5C25.6085 64.5 18.8915 64.5 12.1719 64.5C12.1719 63.1571 12.1719 61.8142 12.1719 60.4687C12.8421 60.4662 13.5148 60.4687 14.1875 60.4662C14.1951 55.7597 14.1724 51.0507 14.1976 46.3442ZM18.2313 48.3876C18.2087 52.4087 18.2087 56.4324 18.2288 60.4561C20.9096 60.4813 23.5904 60.4788 26.2687 60.4587C26.2913 56.435 26.2913 52.4087 26.2687 48.3851C23.5904 48.3649 20.9096 48.3624 18.2313 48.3876Z" fill="#2B6A96"/>
<path d="M40.4007 46.3417C40.373 45.276 41.3229 44.3286 42.3911 44.3538C46.4325 44.3362 50.4763 44.3362 54.5176 44.3538C55.6892 44.321 56.6315 45.4473 56.5156 46.5886C56.5156 51.2145 56.5156 55.8403 56.5156 60.4662C57.1858 60.4687 57.8585 60.4662 58.5312 60.4687C58.5287 61.8142 58.5312 63.1571 58.5312 64.5C51.8117 64.5 45.0946 64.5 38.375 64.5C38.375 63.1571 38.375 61.8142 38.375 60.4687C39.0452 60.4662 39.7179 60.4687 40.3906 60.4687C40.3982 55.7597 40.3755 51.0507 40.4007 46.3417ZM44.432 48.3876C44.4118 52.4113 44.4143 56.4324 44.432 60.4561C47.1127 60.4813 49.7935 60.4788 52.4718 60.4587C52.4945 56.435 52.4945 52.4087 52.4718 48.3876C49.7935 48.3649 47.1127 48.3624 44.432 48.3876Z" fill="#2B6A96"/>
<path d="M85.3289 72.6658C89.8515 71.9276 94.5882 74.7419 96.1604 79.0327C97.2085 81.7387 97.0095 84.9007 95.6061 87.4454C94.3841 89.7105 92.2627 91.4691 89.8062 92.2426C87.2891 93.0514 84.4521 92.817 82.109 91.585C79.7104 90.3429 77.8459 88.1005 77.085 85.5079C76.2763 82.7969 76.6718 79.7482 78.181 77.3522C79.7205 74.8402 82.4063 73.0614 85.3289 72.6658ZM85.8228 76.6744C82.7666 77.075 80.4007 80.1035 80.7308 83.1647C80.9147 85.5683 82.6834 87.7528 85.0039 88.4179C87.0825 89.0755 89.4912 88.4608 91.018 86.9087C92.5827 85.3718 93.1924 82.938 92.5222 80.8468C91.716 78.0551 88.69 76.1503 85.8228 76.6744Z" fill="#2B6A96"/>
<path d="M4.12448 8.07255C33.6761 8.05492 63.2302 8.05492 92.7817 8.07255C92.817 9.41042 92.817 10.7458 92.7817 12.0836C63.2302 12.1013 33.6761 12.1013 4.12448 12.0836C4.0892 10.7458 4.0892 9.41042 4.12448 8.07255Z" fill="#C4E7FF"/>
<path d="M18.2314 24.2C20.9096 24.1748 23.5904 24.1774 26.2687 24.1975C26.2913 28.2212 26.2913 32.2449 26.2687 36.2686C23.5904 36.2913 20.9096 36.2938 18.2314 36.2686C18.2087 32.2474 18.2087 28.2237 18.2314 24.2Z" fill="#C4E7FF"/>
<path d="M44.4345 24.1975C47.1127 24.1774 49.7935 24.1748 52.4718 24.2C52.4945 28.2212 52.4945 32.2474 52.4718 36.2686C49.7935 36.2913 47.1127 36.2938 44.4345 36.2686C44.4118 32.2449 44.4118 28.2212 44.4345 24.1975Z" fill="#C4E7FF"/>
<path d="M70.6376 24.2001C73.3159 24.1749 75.9967 24.1774 78.6774 24.2001C78.6976 28.2213 78.6976 32.245 78.6749 36.2686C75.9967 36.2938 73.3159 36.2913 70.6376 36.2686C70.6149 32.2475 70.6149 28.2238 70.6376 24.2001Z" fill="#C4E7FF"/>
<path d="M18.2313 48.3875C20.9096 48.3623 23.5904 48.3649 26.2686 48.385C26.2913 52.4087 26.2913 56.4349 26.2686 60.4586C23.5904 60.4788 20.9096 60.4813 18.2288 60.4561C18.2086 56.4324 18.2086 52.4087 18.2313 48.3875Z" fill="#C4E7FF"/>
<path d="M44.4319 48.3876C47.1127 48.3624 49.7935 48.3649 52.4717 48.3876C52.4944 52.4088 52.4944 56.435 52.4717 60.4587C49.7935 60.4788 47.1127 60.4813 44.4319 60.4561C44.4143 56.4325 44.4118 52.4113 44.4319 48.3876Z" fill="#C4E7FF"/>
<path d="M70.6376 48.385C73.3159 48.3649 75.9967 48.3623 78.6774 48.3875C78.6951 52.4112 78.6976 56.4324 78.6749 60.4561C75.9967 60.4813 73.3159 60.4788 70.6376 60.4586C70.6149 56.4324 70.6149 52.4087 70.6376 48.385Z" fill="#C4E7FF"/>
<path d="M79.4534 66.0319C84.1448 63.9356 89.7407 63.9911 94.3892 66.1881C101.041 69.1863 105.498 76.5484 104.802 83.8475C104.258 87.3899 102.558 90.6149 100.892 93.7442C98.292 98.4104 95.2408 102.807 92.046 107.08C90.3101 109.315 88.6447 111.615 86.75 113.719C84.0969 110.683 81.7009 107.425 79.3199 104.173C76.0596 99.5946 72.9379 94.8755 70.5897 89.7558C69.4559 87.1985 68.4103 84.4597 68.6346 81.6101C68.942 74.9283 73.3083 68.6648 79.4534 66.0319ZM85.329 72.6658C82.4063 73.0614 79.7205 74.8402 78.1811 77.3521C76.6719 79.7482 76.2763 82.7968 77.0851 85.5079C77.846 88.1005 79.7104 90.3428 82.109 91.585C84.4522 92.817 87.2892 93.0513 89.8062 92.2426C92.2627 91.4691 94.3842 89.7104 95.6061 87.4454C97.0095 84.9007 97.2086 81.7386 96.1604 79.0327C94.5883 74.7419 89.8515 71.9276 85.329 72.6658Z" fill="#C4E7FF"/>
<path d="M42.0535 81.7764C43.8626 79.3677 47.0875 78.1332 50.0404 78.7681C53.6131 79.4307 56.4526 82.7615 56.5005 86.4023C56.5308 89.849 56.5232 93.2932 56.503 96.7399C51.1364 96.7575 45.7698 96.7601 40.4007 96.7374C40.373 93.462 40.3982 90.1866 40.3881 86.9112C40.3579 85.077 40.9223 83.2302 42.0535 81.7764Z" fill="#C4E7FF"/>
<path d="M4.10681 100.794C26.7725 100.776 49.4407 100.769 72.1064 100.796C72.57 101.441 73.0135 102.099 73.4241 102.779C50.3175 102.815 27.2134 102.802 4.10681 102.784C4.10933 102.119 4.10933 101.457 4.10681 100.794Z" fill="#C4E7FF"/>
</svg>
